<svg width="56" height="56" viewBox="0 0 56 56" fill="none" xmlns="http://www.w3.org/2000/svg">
<path d="M11.7817 13.5885V12.9985H3.38867L6.18867 4.61153C6.34842 4.13302 6.65489 3.71701 7.06454 3.42261C7.4742 3.1282 7.9662 2.97037 8.47067 2.97153H13.4187C13.5717 2.61753 13.7367 2.26353 13.9187 1.91553L49.5297 2.38153L54.2477 13.5875L11.7817 13.5885Z" fill="#E9EBEF"/>
<path d="M54.2452 26.7258C55.0038 25.8654 55.423 24.758 55.4242 23.6108V13.5858L52.0332 3.73685C51.7304 2.82538 51.1479 2.03262 50.3685 1.47138C49.5892 0.910138 48.6526 0.609011 47.6922 0.610848H8.4662C7.46731 0.609341 6.49332 0.92251 5.6825 1.5059C4.87167 2.08929 4.26521 2.91326 3.9492 3.86085L0.575195 13.5858V23.6108C0.576955 24.7578 0.996437 25.8648 1.7552 26.7248C1.9665 26.9638 2.20098 27.1812 2.4552 27.3738C2.19869 27.5683 1.96399 27.7899 1.7552 28.0348C0.99621 28.8952 0.576712 30.0026 0.575195 31.1498L0.575195 37.0498C0.57653 37.7995 0.756468 38.538 1.1001 39.2042C1.44373 39.8704 1.94117 40.4452 2.5512 40.8808C1.94131 41.3164 1.44395 41.891 1.10033 42.557C0.756702 43.2231 0.576689 43.9614 0.575195 44.7108L0.575195 50.6108C0.575195 51.8621 1.07227 53.0622 1.95707 53.947C2.84186 54.8318 4.0419 55.3288 5.2932 55.3288H50.7062C51.9575 55.3288 53.1575 54.8318 54.0423 53.947C54.9271 53.0622 55.4242 51.8621 55.4242 50.6108V44.7108C55.4233 43.9607 55.2436 43.2216 54.9 42.5548C54.5563 41.888 54.0586 41.3128 53.4482 40.8768C54.0586 40.4409 54.5563 39.8657 54.9 39.1989C55.2436 38.5321 55.4233 37.793 55.4242 37.0428V31.1428C55.4224 29.9959 55.003 28.8889 54.2442 28.0288C54.0376 27.7907 53.8063 27.5752 53.5542 27.3858C53.8057 27.1873 54.0369 26.9642 54.2442 26.7198L54.2452 26.7258ZM6.1842 4.61085C6.34394 4.13234 6.65041 3.71633 7.06006 3.42193C7.46972 3.12752 7.96173 2.96969 8.4662 2.97085H47.5332C48.0377 2.96969 48.5297 3.12752 48.9393 3.42193C49.349 3.71633 49.6554 4.13234 49.8152 4.61085L52.6152 12.9978H3.3882L6.1842 4.61085ZM2.9342 15.3548H53.0652V23.6108C53.0652 24.2365 52.8167 24.8365 52.3743 25.2789C51.9319 25.7213 51.3318 25.9698 50.7062 25.9698H5.2932C4.66755 25.9698 4.06753 25.7213 3.62513 25.2789C3.18273 24.8365 2.9342 24.2365 2.9342 23.6108V15.3548ZM53.0652 50.6108C53.0652 51.2365 52.8167 51.8365 52.3743 52.2789C51.9319 52.7213 51.3318 52.9698 50.7062 52.9698H5.2932C4.66755 52.9698 4.06753 52.7213 3.62513 52.2789C3.18273 51.8365 2.9342 51.2365 2.9342 50.6108V44.7108C2.9342 44.0852 3.18273 43.4852 3.62513 43.0428C4.06753 42.6004 4.66755 42.3518 5.2932 42.3518H50.7062C51.3318 42.3518 51.9319 42.6004 52.3743 43.0428C52.8167 43.4852 53.0652 44.0852 53.0652 44.7108V50.6108ZM53.0652 37.0458C53.066 37.3561 53.0056 37.6635 52.8874 37.9504C52.7692 38.2373 52.5955 38.4981 52.3764 38.7178C52.1573 38.9375 51.8969 39.1118 51.6103 39.2307C51.3237 39.3496 51.0165 39.4108 50.7062 39.4108H5.2932C4.66755 39.4108 4.06753 39.1623 3.62513 38.7199C3.18273 38.2775 2.9342 37.6775 2.9342 37.0518V31.1518C2.9342 30.5262 3.18273 29.9262 3.62513 29.4838C4.06753 29.0414 4.66755 28.7928 5.2932 28.7928H50.7062C51.3318 28.7928 51.9319 29.0414 52.3743 29.4838C52.8167 29.9262 53.0652 30.5262 53.0652 31.1518V37.0458Z" fill="#2533CC"/>
<path d="M36.551 5.35303H9.42203C9.09618 5.35303 8.83203 5.61718 8.83203 5.94303C8.83203 6.26888 9.09618 6.53303 9.42203 6.53303H36.551C36.8769 6.53303 37.141 6.26888 37.141 5.94303C37.141 5.61718 36.8769 5.35303 36.551 5.35303Z" fill="#2533CC"/>
<path d="M46.577 5.35303H40.09C39.7642 5.35303 39.5 5.61718 39.5 5.94303C39.5 6.26888 39.7642 6.53303 40.09 6.53303H46.577C46.9028 6.53303 47.167 6.26888 47.167 5.94303C47.167 5.61718 46.9028 5.35303 46.577 5.35303Z" fill="#2533CC"/>
<path d="M34.1924 33.833H19.4484C19.1226 33.833 18.8584 34.0972 18.8584 34.423C18.8584 34.7489 19.1226 35.013 19.4484 35.013H34.1924C34.5182 35.013 34.7824 34.7489 34.7824 34.423C34.7824 34.0972 34.5182 33.833 34.1924 33.833Z" fill="#2533CC"/>
<path d="M7.0625 32.3577V36.4857C7.0625 36.8115 7.32665 37.0757 7.6525 37.0757C7.97835 37.0757 8.2425 36.8115 8.2425 36.4857V32.3577C8.2425 32.0318 7.97835 31.7677 7.6525 31.7677C7.32665 31.7677 7.0625 32.0318 7.0625 32.3577Z" fill="#2533CC"/>
<path d="M10.6016 32.3577V36.4857C10.6016 36.8115 10.8657 37.0757 11.1916 37.0757C11.5174 37.0757 11.7816 36.8115 11.7816 36.4857V32.3577C11.7816 32.0318 11.5174 31.7677 11.1916 31.7677C10.8657 31.7677 10.6016 32.0318 10.6016 32.3577Z" fill="#2533CC"/>
<path d="M14.1387 32.3577V36.4857C14.1387 36.8115 14.4028 37.0757 14.7287 37.0757C15.0545 37.0757 15.3187 36.8115 15.3187 36.4857V32.3577C15.3187 32.0318 15.0545 31.7677 14.7287 31.7677C14.4028 31.7677 14.1387 32.0318 14.1387 32.3577Z" fill="#2533CC"/>
<path d="M39.2045 35.8987C40.0185 35.8987 40.6785 35.2388 40.6785 34.4247C40.6785 33.6106 40.0185 32.9507 39.2045 32.9507C38.3904 32.9507 37.7305 33.6106 37.7305 34.4247C37.7305 35.2388 38.3904 35.8987 39.2045 35.8987Z" fill="#2533CC"/>
<path d="M43.3334 35.8987C44.1474 35.8987 44.8074 35.2388 44.8074 34.4247C44.8074 33.6106 44.1474 32.9507 43.3334 32.9507C42.5193 32.9507 41.8594 33.6106 41.8594 34.4247C41.8594 35.2388 42.5193 35.8987 43.3334 35.8987Z" fill="#2533CC"/>
<path d="M47.4623 35.8987C48.2763 35.8987 48.9363 35.2388 48.9363 34.4247C48.9363 33.6106 48.2763 32.9507 47.4623 32.9507C46.6482 32.9507 45.9883 33.6106 45.9883 34.4247C45.9883 35.2388 46.6482 35.8987 47.4623 35.8987Z" fill="#2533CC"/>
<path d="M34.1924 47.396H19.4484C19.1226 47.396 18.8584 47.6601 18.8584 47.986C18.8584 48.3118 19.1226 48.576 19.4484 48.576H34.1924C34.5182 48.576 34.7824 48.3118 34.7824 47.986C34.7824 47.6601 34.5182 47.396 34.1924 47.396Z" fill="#2533CC"/>
<path d="M7.0625 45.9241V50.0521C7.0625 50.3779 7.32665 50.6421 7.6525 50.6421C7.97835 50.6421 8.2425 50.3779 8.2425 50.0521V45.9241C8.2425 45.5982 7.97835 45.3341 7.6525 45.3341C7.32665 45.3341 7.0625 45.5982 7.0625 45.9241Z" fill="#2533CC"/>
<path d="M10.6016 45.9241V50.0521C10.6016 50.3779 10.8657 50.6421 11.1916 50.6421C11.5174 50.6421 11.7816 50.3779 11.7816 50.0521V45.9241C11.7816 45.5982 11.5174 45.3341 11.1916 45.3341C10.8657 45.3341 10.6016 45.5982 10.6016 45.9241Z" fill="#2533CC"/>
<path d="M14.1387 45.9241V50.0521C14.1387 50.3779 14.4028 50.6421 14.7287 50.6421C15.0545 50.6421 15.3187 50.3779 15.3187 50.0521V45.9241C15.3187 45.5982 15.0545 45.3341 14.7287 45.3341C14.4028 45.3341 14.1387 45.5982 14.1387 45.9241Z" fill="#2533CC"/>
<path d="M39.2054 49.4607C40.0195 49.4607 40.6794 48.8008 40.6794 47.9867C40.6794 47.1726 40.0195 46.5127 39.2054 46.5127C38.3914 46.5127 37.7314 47.1726 37.7314 47.9867C37.7314 48.8008 38.3914 49.4607 39.2054 49.4607Z" fill="#2533CC"/>
<path d="M43.3334 49.4607C44.1474 49.4607 44.8074 48.8008 44.8074 47.9867C44.8074 47.1726 44.1474 46.5127 43.3334 46.5127C42.5193 46.5127 41.8594 47.1726 41.8594 47.9867C41.8594 48.8008 42.5193 49.4607 43.3334 49.4607Z" fill="#2533CC"/>
<path d="M47.4623 49.4607C48.2763 49.4607 48.9363 48.8008 48.9363 47.9867C48.9363 47.1726 48.2763 46.5127 47.4623 46.5127C46.6482 46.5127 45.9883 47.1726 45.9883 47.9867C45.9883 48.8008 46.6482 49.4607 47.4623 49.4607Z" fill="#2533CC"/>
<path d="M34.1924 20.2681H19.4484C19.1226 20.2681 18.8584 20.5322 18.8584 20.8581C18.8584 21.1839 19.1226 21.4481 19.4484 21.4481H34.1924C34.5182 21.4481 34.7824 21.1839 34.7824 20.8581C34.7824 20.5322 34.5182 20.2681 34.1924 20.2681Z" fill="#2533CC"/>
<path d="M7.0625 18.7952V22.9232C7.0625 23.249 7.32665 23.5132 7.6525 23.5132C7.97835 23.5132 8.2425 23.249 8.2425 22.9232V18.7952C8.2425 18.4693 7.97835 18.2052 7.6525 18.2052C7.32665 18.2052 7.0625 18.4693 7.0625 18.7952Z" fill="#2533CC"/>
<path d="M10.6016 18.7952V22.9232C10.6016 23.249 10.8657 23.5132 11.1916 23.5132C11.5174 23.5132 11.7816 23.249 11.7816 22.9232V18.7952C11.7816 18.4693 11.5174 18.2052 11.1916 18.2052C10.8657 18.2052 10.6016 18.4693 10.6016 18.7952Z" fill="#2533CC"/>
<path d="M14.1387 18.7952V22.9232C14.1387 23.249 14.4028 23.5132 14.7287 23.5132C15.0545 23.5132 15.3187 23.249 15.3187 22.9232V18.7952C15.3187 18.4693 15.0545 18.2052 14.7287 18.2052C14.4028 18.2052 14.1387 18.4693 14.1387 18.7952Z" fill="#2533CC"/>
<path d="M39.2045 22.3323C40.0185 22.3323 40.6785 21.6723 40.6785 20.8583C40.6785 20.0442 40.0185 19.3843 39.2045 19.3843C38.3904 19.3843 37.7305 20.0442 37.7305 20.8583C37.7305 21.6723 38.3904 22.3323 39.2045 22.3323Z" fill="#2533CC"/>
<path d="M43.3334 22.3323C44.1474 22.3323 44.8074 21.6723 44.8074 20.8583C44.8074 20.0442 44.1474 19.3843 43.3334 19.3843C42.5193 19.3843 41.8594 20.0442 41.8594 20.8583C41.8594 21.6723 42.5193 22.3323 43.3334 22.3323Z" fill="#2533CC"/>
<path d="M47.4623 22.3323C48.2763 22.3323 48.9363 21.6723 48.9363 20.8583C48.9363 20.0442 48.2763 19.3843 47.4623 19.3843C46.6482 19.3843 45.9883 20.0442 45.9883 20.8583C45.9883 21.6723 46.6482 22.3323 47.4623 22.3323Z" fill="#2533CC"/>
</svg>
