<svg width="25" height="24" viewBox="0 0 25 24" fill="none" xmlns="http://www.w3.org/2000/svg">
<path d="M23.3978 12.0002L24.4508 9.25419C24.5075 9.10628 24.516 8.94422 24.475 8.79119C24.4341 8.63817 24.3458 8.50201 24.2228 8.40219L21.9398 6.55119L21.4778 3.64619C21.4527 3.48994 21.3788 3.34563 21.2667 3.2339C21.1547 3.12218 21.0101 3.04878 20.8538 3.02419L17.9488 2.56219L16.0988 0.277191C15.9991 0.154602 15.8633 0.0665768 15.7107 0.0256418C15.5581 -0.0152933 15.3964 -0.00705276 15.2488 0.0491908L12.4998 1.10019L9.75377 0.0511908C9.60618 -0.00552085 9.44441 -0.0140038 9.29169 0.02696C9.13898 0.0679237 9.00317 0.156227 8.90377 0.279191L7.05277 2.56319L4.14777 3.02519C3.99192 3.05045 3.84798 3.12412 3.73634 3.23576C3.6247 3.3474 3.55103 3.49134 3.52577 3.64719L3.06277 6.55319L0.77777 8.40019C0.655057 8.49978 0.566939 8.63559 0.525995 8.78823C0.48505 8.94088 0.493371 9.10256 0.54977 9.25019L1.60277 12.0002L0.54977 14.7472C0.493059 14.8948 0.484576 15.0566 0.525539 15.2093C0.566503 15.362 0.654806 15.4978 0.77777 15.5972L3.06177 17.4462L3.52377 20.3512C3.54836 20.5075 3.62176 20.6521 3.73348 20.7642C3.84521 20.8762 3.98952 20.9501 4.14577 20.9752L7.05077 21.4372L8.90177 23.7202C9.00111 23.8438 9.13726 23.9326 9.29047 23.9736C9.44367 24.0146 9.60596 24.0057 9.75377 23.9482L12.4998 22.9002L15.2458 23.9532C15.3938 24.0098 15.5559 24.0181 15.7089 23.977C15.862 23.9359 15.9981 23.8474 16.0978 23.7242L17.9468 21.4412L20.8518 20.9792C21.0083 20.9543 21.153 20.8806 21.2651 20.7685C21.3772 20.6564 21.4509 20.5117 21.4758 20.3552L21.9378 17.4502L24.2228 15.6002C24.3456 15.5007 24.4338 15.3649 24.4748 15.2122C24.5157 15.0595 24.5073 14.8978 24.4508 14.7502L23.3978 12.0002Z" fill="#2533CC"/>
<path d="M9.84158 10.2301C9.31588 10.2301 8.80199 10.0742 8.36488 9.78211C7.92778 9.49004 7.5871 9.07492 7.38593 8.58923C7.18475 8.10355 7.13211 7.56912 7.23467 7.05351C7.33723 6.53791 7.59037 6.0643 7.9621 5.69257C8.33383 5.32084 8.80744 5.06769 9.32305 4.96514C9.83865 4.86258 10.3731 4.91522 10.8588 5.1164C11.3445 5.31757 11.7596 5.65825 12.0516 6.09535C12.3437 6.53246 12.4996 7.04635 12.4996 7.57205C12.4988 8.27676 12.2185 8.95237 11.7202 9.45067C11.2219 9.94897 10.5463 10.2293 9.84158 10.2301ZM9.84158 6.68607C9.66635 6.68607 9.49505 6.73802 9.34935 6.83537C9.20365 6.93273 9.0901 7.07111 9.02304 7.233C8.95598 7.3949 8.93843 7.57304 8.97261 7.7449C9.0068 7.91677 9.09118 8.07465 9.21509 8.19856C9.339 8.32247 9.49688 8.40685 9.66875 8.44104C9.84062 8.47523 10.0188 8.45767 10.1807 8.39061C10.3425 8.32355 10.4809 8.21 10.5783 8.0643C10.6756 7.9186 10.7276 7.74729 10.7276 7.57205C10.7276 7.33707 10.6343 7.11172 10.4681 6.94556C10.3019 6.7794 10.0766 6.68607 9.84158 6.68607Z" fill="white"/>
<path d="M15.158 19.0895C14.6323 19.0895 14.1184 18.9336 13.6813 18.6415C13.2442 18.3494 12.9035 17.9343 12.7023 17.4486C12.5012 16.9629 12.4485 16.4285 12.5511 15.9129C12.6536 15.3973 12.9068 14.9237 13.2785 14.552C13.6502 14.1802 14.1238 13.9271 14.6394 13.8245C15.155 13.7219 15.6895 13.7746 16.1752 13.9758C16.6609 14.177 17.076 14.5176 17.3681 14.9548C17.6601 15.3919 17.816 15.9057 17.816 16.4314C17.8152 17.1361 17.5349 17.8118 17.0366 18.3101C16.5383 18.8084 15.8627 19.0887 15.158 19.0895ZM15.158 15.5455C14.9828 15.5455 14.8115 15.5974 14.6658 15.6948C14.5201 15.7921 14.4065 15.9305 14.3395 16.0924C14.2724 16.2543 14.2549 16.4324 14.289 16.6043C14.3232 16.7762 14.4076 16.934 14.5315 17.0579C14.6554 17.1818 14.8133 17.2662 14.9852 17.3004C15.157 17.3346 15.3352 17.3171 15.4971 17.25C15.6589 17.183 15.7973 17.0694 15.8947 16.9237C15.9921 16.778 16.044 16.6067 16.044 16.4314C16.0432 16.1967 15.9496 15.9718 15.7836 15.8058C15.6177 15.6398 15.3927 15.5462 15.158 15.5455Z" fill="white"/>
<path d="M8.06986 19.0918C7.9074 19.0914 7.74819 19.0462 7.60966 18.9613C7.47112 18.8765 7.35861 18.7551 7.28438 18.6106C7.21016 18.4661 7.17711 18.3039 7.18883 18.1419C7.20056 17.9799 7.2566 17.8242 7.35085 17.6918L16.2109 5.29184C16.3497 5.10678 16.5554 4.98336 16.784 4.94795C17.0126 4.91253 17.246 4.96793 17.4343 5.10231C17.6226 5.23668 17.7508 5.43935 17.7917 5.66705C17.8325 5.89474 17.7827 6.12939 17.6529 6.32084L8.79285 18.7208C8.71045 18.8356 8.6019 18.9292 8.47617 18.9937C8.35045 19.0582 8.21117 19.0918 8.06986 19.0918Z" fill="white"/>
</svg>
