<svg width="13" height="16" viewBox="0 0 13 16" fill="none" xmlns="http://www.w3.org/2000/svg">
<path d="M12.3292 8.56854C11.9154 6.85849 11.0275 5.41409 9.8597 4.12424C9.84095 4.10366 9.82357 4.07943 9.78837 4.09589C9.93057 5.25635 10.0243 6.41086 9.34348 7.46295C9.37914 7.16392 9.40566 6.86444 9.41984 6.56358C9.45504 5.80503 9.29318 5.10363 8.84784 4.4754C8.60962 4.13933 8.35083 3.82064 8.08517 3.50698C7.42127 2.72191 7.22603 1.8303 7.43819 0.833535C7.49717 0.557824 7.58816 0.291715 7.67184 0C7.62017 0.0201182 7.59411 0.0288057 7.56942 0.0402365C6.59917 0.487867 5.76106 1.11656 5.00891 1.87283C3.72409 3.16542 3.27371 4.71544 3.53708 6.49636C3.57137 6.72864 3.61389 6.96 3.65276 7.19182C3.42094 6.80408 3.11185 6.49956 2.77624 6.21288C2.50968 5.98563 2.37571 5.68158 2.33181 5.33271C2.30895 5.14798 2.34279 4.96875 2.34599 4.77077C2.26048 4.80232 2.23305 4.86221 2.19602 4.90931C1.58835 5.69392 1.08997 6.54163 0.728298 7.46753C0.36114 8.40897 0.118349 9.38379 0.230828 10.3938C0.453501 12.3919 1.39586 13.9813 3.11231 15.0567C4.62804 16.0059 6.27911 16.2299 8.00196 15.7686C11.1194 14.9332 13.1138 11.8154 12.3292 8.56854ZM8.69649 13.4829C8.20223 14.064 7.57856 14.4179 6.8319 14.5258C5.99516 14.647 5.22518 14.4518 4.55671 13.9218C3.76341 13.2931 3.36607 12.4601 3.29337 11.4569C3.27463 11.1999 3.26411 10.9443 3.26685 10.6878C3.26777 10.6197 3.26457 10.5502 3.31669 10.4734C3.43237 10.7258 3.53845 10.974 3.71586 11.1793C3.89326 11.3846 4.09353 11.5566 4.36421 11.6279L4.36513 11.6265C4.14611 11.2969 3.96916 10.9489 3.8864 10.558C3.7154 9.75186 3.85303 8.99194 4.24488 8.27683C4.8251 7.21651 5.64721 6.35325 6.51412 5.5284C6.53881 5.50508 6.56808 5.48634 6.59642 5.46713C6.60923 5.45845 6.62477 5.45342 6.65952 5.43696C6.64261 5.83566 6.68238 6.21608 6.79578 6.58644C6.94621 7.07934 7.1922 7.51782 7.5397 7.89778C7.96675 8.36416 8.42856 8.79945 8.77651 9.33487C9.20219 9.99008 9.45459 10.6992 9.45367 11.4843C9.45276 12.242 9.18802 12.9045 8.69649 13.4829Z" fill="#FB6D02"/>
<path d="M4.36283 11.6266C4.14382 11.2969 3.96641 10.949 3.88365 10.5581C3.71311 9.75195 3.85028 8.99203 4.24212 8.27692C4.82281 7.21659 5.64446 6.35334 6.51137 5.52895C6.53606 5.50563 6.56532 5.48688 6.59367 5.46722C6.60648 5.45853 6.62248 5.4535 6.65723 5.4375C6.64031 5.83621 6.68009 6.21617 6.79348 6.58698C6.94391 7.07988 7.1899 7.51791 7.5374 7.89787C7.964 8.36425 8.42626 8.79953 8.77422 9.33495C9.1999 9.99017 9.45183 10.6993 9.45092 11.4844C9.45001 12.242 9.18527 12.9046 8.69374 13.483C8.19947 14.0641 7.57627 14.418 6.82915 14.5259C5.99287 14.6471 5.22243 14.4514 4.55396 13.9219C3.76066 13.2932 3.36378 12.4601 3.29062 11.457C3.27188 11.2 3.26136 10.9449 3.2641 10.6879C3.26502 10.6198 3.26182 10.5503 3.31394 10.4735C3.42962 10.7259 3.5357 10.9737 3.71311 11.1794C3.89051 11.3847 4.09078 11.5566 4.36146 11.628C4.36695 11.6339 4.37289 11.6399 4.37838 11.6458C4.37838 11.6417 4.37975 11.6357 4.37747 11.6339C4.37381 11.6298 4.36786 11.6289 4.36283 11.6266Z" fill="#FDDE82"/>
<path d="M4.3627 11.625C4.36773 11.6273 4.37367 11.6282 4.37733 11.6319C4.37962 11.6337 4.37825 11.6396 4.37825 11.6437C4.37276 11.6378 4.36681 11.6319 4.36133 11.6259C4.36133 11.6264 4.3627 11.625 4.3627 11.625Z" fill="#D00128"/>
</svg>
