<svg width="103" height="20" viewBox="0 0 103 20" fill="none" xmlns="http://www.w3.org/2000/svg">
<g clip-path="url(#clip0_178_7042)">
<path d="M83.3652 19.4821H88.6607C89.315 19.4919 89.9503 19.2683 90.4474 18.8533C90.9291 18.4367 91.2588 17.8786 91.3868 17.2632L91.6723 15.8169H84.1849L83.3652 19.4821Z" fill="#2533CC"/>
<path d="M9.43982 4.16504L6.80588 15.8256H0.810443L0 19.4998H5.66389C6.86267 19.4996 8.02676 19.1074 8.97013 18.3858C9.89222 17.6672 10.5275 16.6566 10.766 15.5291L13.2342 4.17402L9.43982 4.16504Z" fill="#2533CC"/>
<path d="M103 0.5H99.2151L96.3232 13.5979C97.4004 13.518 98.4261 13.1165 99.2611 12.448C100.145 11.7305 100.755 10.7429 100.993 9.64516L103 0.5Z" fill="#2533CC"/>
<path d="M78.0056 9.64516L80.0317 0.5H76.2282L73.3271 13.5979C74.4024 13.5171 75.427 13.1192 76.265 12.457C77.1533 11.7377 77.7666 10.7469 78.0056 9.64516Z" fill="#2533CC"/>
<path d="M18.3638 4.15644C17.5197 4.15322 16.7 4.43236 16.0414 4.94731C15.3827 5.46227 14.925 6.18191 14.7445 6.98623L13.9801 10.373C13.8938 10.7674 13.8988 11.1756 13.9946 11.5679C14.0905 11.9602 14.2748 12.3268 14.5341 12.6408C14.7935 12.9549 15.1214 13.2086 15.4939 13.3835C15.8664 13.5584 16.2743 13.6501 16.6877 13.652H18.7414L18.723 13.634H19.5887L20.3715 10.0137H17.8389L18.3178 7.82169H22.0569L20.2886 15.808H12.746L11.9355 19.4822H19.2295C20.4544 19.4283 21.5227 19.042 22.3608 18.3862C23.1989 17.7304 23.8159 16.7962 24.1198 15.6463L26.6893 4.14746H18.3638V4.15644Z" fill="#2533CC"/>
<path d="M61.1426 7.77647H64.9001L65.7566 4.16513H63.2516C62.8805 4.16125 62.52 4.2853 62.2336 4.51539C61.9471 4.74549 61.7532 5.06685 61.6859 5.42281L61.1426 7.77647Z" fill="#FB8D04"/>
<path d="M59.3279 15.8168H66.8705L69.4492 4.15625H73.308L70.8306 15.4035C70.5838 16.5045 69.9771 17.4974 69.1018 18.2329C68.2265 18.9685 67.1299 19.4068 65.9772 19.482H54.7139L57.2926 7.8215H61.1145L59.3279 15.8168Z" fill="#2533CC"/>
<path d="M40.2642 4.15625L38.9473 10.0135H31.3401L32.6387 4.15625H28.8536L25.4736 19.473C26.1175 19.4215 26.7471 19.2604 27.334 18.9969C28.0991 18.6616 28.7692 18.1498 29.2864 17.5057C29.651 17.0351 29.9056 16.4923 30.0324 15.9156L30.5389 13.6248H37.6487C38.8702 13.6348 40.06 13.2458 41.0286 12.5198C41.9737 11.8082 42.6296 10.7928 42.8798 9.65412V9.63615L44.077 4.16523L40.2642 4.15625Z" fill="#2533CC"/>
<path d="M46.1767 4.16504L44.9058 10.0133H42.7968L41.9863 13.6336H43.6625C44.9334 13.6246 46.0938 13.2293 46.9871 12.5286C47.9134 11.8082 48.5519 10.7944 48.7922 9.66291L48.8198 9.53714L50.0079 4.16504H46.1767Z" fill="#2533CC"/>
<path d="M52.1445 4.16504L50.8735 10.0133H48.7645L47.9541 13.6336H49.6302C50.9012 13.6246 52.0616 13.2293 52.9549 12.5286C53.8811 11.8082 54.5197 10.7944 54.76 9.66291L54.7876 9.53714L55.9756 4.16504H52.1445Z" fill="#2533CC"/>
<path d="M92.4916 4.17402L91.2115 10.0492L83.8254 10.0222L85.1239 4.16504H81.3848L78.7417 15.8256H72.8383L72.0371 19.4998H77.8207C79.0456 19.3291 80.0218 18.9428 80.7862 18.3589C81.5506 17.775 82.1124 17.0114 82.49 16.0591L83.0426 13.6246L89.9037 13.6516C92.3442 13.6246 94.3335 12.1693 95.0334 10.0851L96.3044 4.17402H92.4916Z" fill="#2533CC"/>
</g>
<defs>
<clipPath id="clip0_178_7042">
<rect width="103" height="19" fill="white" transform="translate(0 0.5)"/>
</clipPath>
</defs>
</svg>
