<svg width="478" height="412" viewBox="0 0 478 412" fill="none" xmlns="http://www.w3.org/2000/svg">
<path d="M136.665 257.551C136.099 257.858 125.644 260.826 121.765 255.71C117.886 250.594 124.319 242.62 120.685 239.681C117.051 236.742 106.871 239.698 104.42 233.506C101.969 227.314 109.234 224.662 105.151 218.431C102.58 214.506 96.2645 212.308 95.7085 208.68C94.7785 202.616 104.828 199.83 113.422 205.554C122.016 211.278 127.213 208.654 129.94 208.272C132.667 207.89 138.546 208.735 138.357 218.308C138.168 227.881 136.665 257.551 136.665 257.551Z" fill="#0DBF66"/>
<path d="M137.355 243.937C137.22 243.937 137.09 243.889 136.987 243.802C136.884 243.714 136.815 243.593 136.793 243.46C133.801 225.295 112.684 210.51 101.705 207.337C101.56 207.295 101.438 207.197 101.365 207.065C101.292 206.933 101.274 206.777 101.316 206.632C101.358 206.487 101.456 206.365 101.588 206.292C101.72 206.219 101.876 206.201 102.021 206.243C113.249 209.488 134.846 224.637 137.921 243.275C137.946 243.424 137.91 243.577 137.822 243.7C137.734 243.822 137.6 243.905 137.451 243.93C137.42 243.935 137.387 243.937 137.355 243.937Z" fill="white"/>
<path d="M112.459 228.728C112.334 228.729 112.213 228.688 112.113 228.613C112.013 228.537 111.941 228.431 111.908 228.31C111.875 228.19 111.882 228.062 111.929 227.946C111.976 227.83 112.06 227.733 112.167 227.669C112.509 227.469 120.633 222.717 128.638 224.938C128.711 224.958 128.778 224.992 128.837 225.038C128.896 225.084 128.946 225.142 128.983 225.207C129.02 225.272 129.043 225.344 129.052 225.418C129.062 225.493 129.056 225.568 129.036 225.64C129.016 225.713 128.982 225.78 128.936 225.839C128.89 225.898 128.832 225.948 128.767 225.985C128.702 226.022 128.63 226.045 128.556 226.055C128.481 226.064 128.406 226.058 128.333 226.038C120.803 223.948 112.833 228.605 112.749 228.651C112.661 228.702 112.561 228.729 112.459 228.728Z" fill="white"/>
<path d="M140.718 264.528C140.824 265.982 141.272 267.391 142.024 268.64C142.777 269.889 143.813 270.944 145.049 271.718L266.374 341.765C267.716 342.446 269.199 342.8 270.704 342.8C272.209 342.8 273.693 342.446 275.035 341.765L441.042 245.921C442.349 245.229 443.443 244.194 444.206 242.927C444.969 241.66 445.372 240.209 445.372 238.73C445.372 237.251 444.969 235.8 444.206 234.533C443.443 233.266 442.349 232.231 441.042 231.54L319.716 161.493C318.374 160.812 316.89 160.457 315.386 160.457C313.881 160.457 312.398 160.812 311.056 161.493L145.048 257.337C143.812 258.111 142.776 259.166 142.024 260.415C141.271 261.664 140.824 263.073 140.718 264.528Z" fill="#E9EBEF"/>
<path d="M270.706 333.428V342.798C269.199 342.83 267.708 342.476 266.376 341.768L145.046 271.718C143.777 271.05 142.709 270.057 141.949 268.841C141.188 267.625 140.764 266.23 140.72 264.796C140.675 263.363 141.011 261.944 141.694 260.683C142.377 259.422 143.382 258.364 144.606 257.618C142.666 259.008 142.817 261.048 145.046 262.338L266.376 332.388C267.707 333.099 269.198 333.457 270.706 333.428Z" fill="#A3ACC0"/>
<path d="M136.656 257.492C135.45 256.673 134.453 255.581 133.748 254.305C133.042 253.029 132.647 251.604 132.594 250.147V105.362C132.675 103.859 133.109 102.397 133.862 101.094C134.614 99.791 135.663 98.6836 136.924 97.862L302.931 2.018C304.219 1.33499 305.65 0.965036 307.108 0.938107C308.566 0.911178 310.01 1.22803 311.323 1.863C312.53 2.68182 313.527 3.77354 314.233 5.04965C314.94 6.32576 315.336 7.75037 315.389 9.208V153.993C315.307 155.495 314.873 156.958 314.12 158.261C313.368 159.564 312.319 160.671 311.059 161.493L145.048 257.337C143.759 258.02 142.328 258.39 140.87 258.417C139.412 258.444 137.968 258.127 136.656 257.492Z" fill="#E9EBEF"/>
<path d="M144.536 257.598C143.294 258.158 141.945 258.438 140.584 258.419C139.223 258.4 137.882 258.082 136.657 257.488C135.451 256.67 134.455 255.579 133.749 254.303C133.043 253.028 132.648 251.605 132.596 250.148V105.358C132.645 103.852 133.083 102.385 133.866 101.098L141.986 105.778V105.788C141.208 107.077 140.771 108.543 140.716 110.048V254.838C140.716 257.398 142.389 258.548 144.536 257.598Z" fill="#E9EBEF"/>
<path d="M140.718 110.052V254.837C140.718 257.598 142.656 258.718 145.048 257.337L311.056 161.493C312.316 160.671 313.365 159.564 314.117 158.261C314.87 156.958 315.304 155.496 315.386 153.993V9.20814C315.386 6.44714 313.447 5.32714 311.056 6.70814L145.048 102.552C143.787 103.374 142.738 104.481 141.986 105.784C141.234 107.088 140.799 108.55 140.718 110.052Z" fill="white"/>
<path d="M145.048 262.337L266.374 332.384C267.716 333.065 269.2 333.419 270.704 333.419C272.209 333.419 273.693 333.065 275.035 332.384L441.042 236.54C443.434 235.159 443.434 232.921 441.042 231.54L319.716 161.493C318.374 160.812 316.891 160.457 315.386 160.457C313.881 160.457 312.398 160.812 311.056 161.493L145.048 257.337C142.656 258.718 142.656 260.956 145.048 262.337Z" fill="#E9EBEF"/>
<path d="M147.376 110.587L307.429 18.2048C308.864 17.3768 310.029 18.0478 310.029 19.7048V145.039C309.98 145.94 309.719 146.818 309.268 147.6C308.816 148.382 308.186 149.046 307.429 149.539L147.376 241.92C145.941 242.748 144.776 242.076 144.776 240.42V115.087C144.826 114.185 145.087 113.308 145.538 112.526C145.99 111.744 146.62 111.08 147.376 110.587Z" fill="white"/>
<path opacity="0.6" d="M147.376 110.587L307.429 18.2048C308.864 17.3768 310.029 18.0478 310.029 19.7048V145.039C309.98 145.94 309.719 146.818 309.268 147.6C308.816 148.382 308.186 149.046 307.429 149.539L147.376 241.92C145.941 242.748 144.776 242.076 144.776 240.42V115.087C144.826 114.185 145.087 113.308 145.538 112.526C145.99 111.744 146.62 111.08 147.376 110.587Z" fill="#E9EBEF"/>
<path d="M227.062 102.663C231.323 100.202 234.778 102.197 234.778 107.117C234.633 109.794 233.858 112.4 232.518 114.722C231.177 117.044 229.308 119.017 227.062 120.481C222.801 122.941 219.346 120.947 219.346 116.026C219.491 113.349 220.265 110.744 221.606 108.422C222.947 106.1 224.816 104.127 227.062 102.663Z" fill="#2533CC"/>
<path d="M242.268 128.978C242.268 120.894 236.592 117.305 229.592 121.347L225.215 123.874C218.215 127.916 212.539 137.746 212.539 145.83V148.005L242.268 130.853V128.978Z" fill="#2533CC"/>
<path d="M257.3 132.972C257.017 132.32 256.3 132.156 255.486 132.621L203.568 162.577C203.01 162.942 202.546 163.434 202.213 164.012C201.88 164.59 201.687 165.238 201.65 165.904V172.013C201.65 173.052 202.27 173.561 203.109 173.325C203.196 173.3 203.246 173.282 203.246 173.282C203.358 173.238 203.465 173.185 203.568 173.124L255.488 143.168C256.048 142.804 256.514 142.313 256.847 141.735C257.181 141.156 257.374 140.508 257.409 139.841V133.728C257.414 133.472 257.377 133.216 257.3 132.972Z" fill="#2533CC"/>
<path d="M208.262 163.334C209.269 162.752 210.085 163.224 210.085 164.387C210.05 165.02 209.867 165.635 209.551 166.184C209.234 166.733 208.792 167.199 208.262 167.546C207.255 168.127 206.438 167.656 206.438 166.493C206.472 165.86 206.655 165.244 206.972 164.695C207.289 164.146 207.73 163.68 208.262 163.334Z" fill="white"/>
<path d="M214.295 159.851C215.302 159.269 216.118 159.741 216.118 160.904C216.083 161.537 215.901 162.152 215.584 162.701C215.267 163.25 214.825 163.717 214.295 164.063C213.287 164.644 212.471 164.173 212.471 163.01C212.505 162.377 212.688 161.761 213.005 161.212C213.321 160.663 213.763 160.197 214.295 159.851Z" fill="white"/>
<path d="M220.328 156.368C221.335 155.786 222.151 156.257 222.151 157.421C222.117 158.054 221.934 158.669 221.617 159.218C221.3 159.767 220.859 160.233 220.328 160.579C219.32 161.161 218.504 160.69 218.504 159.526C218.538 158.893 218.721 158.278 219.038 157.729C219.355 157.18 219.797 156.714 220.328 156.368Z" fill="white"/>
<path d="M226.36 152.884C227.367 152.303 228.183 152.774 228.183 153.938C228.149 154.571 227.966 155.186 227.649 155.735C227.333 156.284 226.891 156.75 226.36 157.096C225.352 157.678 224.536 157.206 224.536 156.043C224.57 155.41 224.753 154.794 225.07 154.245C225.387 153.696 225.829 153.23 226.36 152.884Z" fill="white"/>
<path d="M232.388 149.401C233.395 148.82 234.211 149.291 234.211 150.454C234.177 151.087 233.995 151.703 233.678 152.252C233.361 152.801 232.919 153.267 232.388 153.613C231.38 154.195 230.564 153.723 230.564 152.56C230.599 151.927 230.782 151.311 231.099 150.762C231.415 150.214 231.857 149.747 232.388 149.401Z" fill="white"/>
<path d="M238.426 145.918C239.434 145.337 240.25 145.808 240.25 146.971C240.215 147.604 240.032 148.22 239.716 148.769C239.399 149.317 238.957 149.784 238.426 150.13C237.419 150.712 236.603 150.24 236.603 149.077C236.637 148.444 236.82 147.828 237.136 147.279C237.453 146.731 237.895 146.264 238.426 145.918Z" fill="white"/>
<path d="M244.459 142.435C245.466 141.854 246.283 142.325 246.283 143.488C246.248 144.121 246.065 144.737 245.748 145.285C245.431 145.834 244.99 146.301 244.459 146.647C243.452 147.229 242.636 146.757 242.636 145.594C242.67 144.961 242.853 144.345 243.17 143.796C243.486 143.248 243.928 142.781 244.459 142.435Z" fill="white"/>
<path d="M250.488 138.952C251.496 138.371 252.312 138.842 252.312 140.005C252.278 140.638 252.095 141.254 251.778 141.803C251.461 142.352 251.019 142.818 250.488 143.164C249.481 143.745 248.665 143.274 248.665 142.111C248.699 141.478 248.882 140.862 249.199 140.313C249.516 139.765 249.957 139.298 250.488 138.952Z" fill="white"/>
<path d="M159.131 258.588L313.222 169.628C313.893 169.288 314.635 169.11 315.387 169.11C316.139 169.11 316.881 169.288 317.552 169.628L325.433 174.179C325.695 174.267 325.922 174.435 326.083 174.659C326.244 174.884 326.331 175.153 326.331 175.429C326.331 175.705 326.244 175.974 326.083 176.198C325.922 176.423 325.695 176.591 325.433 176.679L171.319 265.628C170.648 265.968 169.906 266.145 169.154 266.145C168.402 266.145 167.66 265.968 166.989 265.628L159.131 261.091C158.868 261.003 158.64 260.836 158.478 260.611C158.316 260.386 158.229 260.116 158.229 259.839C158.229 259.562 158.316 259.293 158.478 259.068C158.64 258.843 158.868 258.675 159.131 258.588Z" fill="#A3ACC0"/>
<path d="M179.443 270.314L333.532 181.349C334.203 181.009 334.945 180.832 335.697 180.832C336.449 180.832 337.191 181.009 337.862 181.349L386.339 209.338C386.6 209.427 386.827 209.595 386.988 209.819C387.149 210.043 387.235 210.312 387.235 210.588C387.235 210.864 387.149 211.133 386.988 211.357C386.827 211.581 386.6 211.749 386.339 211.838L232.426 300.68C231.755 301.021 231.012 301.198 230.259 301.199C229.506 301.201 228.764 301.025 228.091 300.686L179.447 272.807C179.185 272.72 178.958 272.553 178.796 272.33C178.635 272.106 178.547 271.838 178.547 271.562C178.546 271.286 178.633 271.017 178.794 270.793C178.954 270.569 179.182 270.402 179.443 270.314Z" fill="#A3ACC0"/>
<path d="M317.57 221.375L322.394 218.59C322.594 218.471 322.587 218.272 322.367 218.145L316.789 214.928C316.671 214.865 316.54 214.831 316.406 214.828C316.272 214.825 316.14 214.854 316.02 214.913L311.195 217.698C310.99 217.816 311.002 218.015 311.223 218.142L316.801 221.363C316.919 221.425 317.05 221.458 317.184 221.46C317.317 221.462 317.449 221.433 317.57 221.375ZM308.049 210.307L303.224 213.093C303.024 213.211 303.032 213.41 303.252 213.537L308.831 216.758C308.949 216.821 309.08 216.855 309.213 216.857C309.347 216.86 309.479 216.832 309.6 216.774L314.425 213.988C314.63 213.87 314.618 213.671 314.398 213.544L308.819 210.328C308.701 210.264 308.57 210.229 308.436 210.226C308.302 210.222 308.17 210.25 308.049 210.307ZM292.462 219.307L284.297 224.021C284.097 224.139 284.105 224.338 284.325 224.465L289.904 227.685C290.022 227.748 290.153 227.782 290.286 227.785C290.42 227.788 290.552 227.759 290.673 227.701L298.838 222.988C299.043 222.869 299.031 222.67 298.81 222.543L293.232 219.322C293.113 219.259 292.982 219.225 292.848 219.222C292.715 219.22 292.582 219.249 292.462 219.307ZM300.998 214.378L296.173 217.164C295.973 217.282 295.98 217.481 296.201 217.608L301.78 220.829C301.898 220.892 302.029 220.926 302.162 220.928C302.296 220.931 302.428 220.903 302.549 220.845L307.373 218.06C307.578 217.941 307.567 217.742 307.346 217.615L301.767 214.395C301.649 214.332 301.518 214.297 301.384 214.294C301.251 214.291 301.118 214.32 300.998 214.378ZM282.071 225.306L277.246 228.091C277.041 228.21 277.054 228.409 277.273 228.536L282.853 231.757C282.971 231.82 283.102 231.854 283.235 231.856C283.369 231.859 283.501 231.831 283.622 231.773L288.447 228.987C288.647 228.869 288.639 228.67 288.419 228.543L282.84 225.322C282.722 225.259 282.591 225.225 282.457 225.222C282.323 225.219 282.191 225.248 282.071 225.306ZM275.019 229.377L270.195 232.163C269.99 232.281 270.002 232.48 270.222 232.607L275.801 235.827C275.919 235.89 276.05 235.924 276.184 235.927C276.318 235.93 276.45 235.901 276.571 235.843L281.395 233.058C281.6 232.939 281.588 232.741 281.368 232.614L275.789 229.393C275.671 229.33 275.539 229.296 275.406 229.293C275.272 229.29 275.139 229.319 275.019 229.377ZM296.963 242.477L301.789 239.689C301.989 239.571 301.982 239.372 301.761 239.245L296.183 236.024C296.064 235.961 295.933 235.927 295.799 235.924C295.666 235.922 295.533 235.951 295.413 236.009L290.589 238.794C290.384 238.912 290.396 239.111 290.616 239.238L296.195 242.459C296.312 242.521 296.443 242.555 296.577 242.558C296.71 242.561 296.842 242.532 296.963 242.475V242.477ZM289.912 246.548L294.737 243.763C294.942 243.644 294.929 243.445 294.709 243.318L289.131 240.097C289.012 240.034 288.881 240 288.748 239.997C288.614 239.994 288.481 240.023 288.361 240.081L283.536 242.867C283.336 242.985 283.344 243.184 283.563 243.311L289.142 246.532C289.26 246.594 289.391 246.628 289.525 246.631C289.659 246.633 289.791 246.604 289.912 246.546V246.548ZM282.861 250.619L287.689 247.828C287.894 247.71 287.882 247.512 287.662 247.384L282.083 244.163C281.965 244.1 281.834 244.066 281.7 244.063C281.566 244.06 281.434 244.089 281.314 244.147L276.489 246.933C276.284 247.052 276.296 247.25 276.517 247.377L282.095 250.598C282.212 250.66 282.342 250.695 282.475 250.698C282.608 250.701 282.74 250.673 282.861 250.617V250.619ZM275.809 254.69L280.634 251.905C280.839 251.786 280.827 251.587 280.606 251.46L275.028 248.24C274.91 248.177 274.778 248.142 274.645 248.14C274.511 248.137 274.378 248.166 274.258 248.224L269.434 251.009C269.229 251.127 269.241 251.326 269.461 251.454L275.04 254.674C275.158 254.736 275.289 254.77 275.422 254.773C275.556 254.775 275.688 254.746 275.809 254.688V254.69ZM310.519 225.448L315.343 222.663C315.548 222.544 315.536 222.345 315.316 222.218L309.737 218.998C309.619 218.935 309.488 218.9 309.354 218.898C309.22 218.895 309.088 218.924 308.968 218.982L304.143 221.767C303.938 221.886 303.95 222.084 304.17 222.212L309.749 225.433C309.867 225.495 309.998 225.529 310.132 225.531C310.266 225.533 310.398 225.504 310.519 225.446V225.448ZM304.019 238.406L314.781 232.192C314.981 232.074 314.974 231.875 314.754 231.748L301.201 223.928C301.083 223.865 300.952 223.831 300.818 223.828C300.684 223.825 300.552 223.854 300.432 223.912L294.865 227.126C294.66 227.244 294.672 227.443 294.892 227.57L302.065 231.711C302.285 231.838 302.297 232.037 302.092 232.156L297.639 234.728C297.434 234.846 297.446 235.045 297.666 235.172L303.245 238.393C303.363 238.455 303.495 238.488 303.628 238.49C303.762 238.492 303.894 238.462 304.015 238.404L304.019 238.406ZM267.972 233.45L263.147 236.236C262.947 236.354 262.955 236.553 263.175 236.68L268.754 239.901C268.872 239.964 269.003 239.998 269.136 240C269.27 240.003 269.402 239.975 269.523 239.917L274.348 237.131C274.553 237.013 274.541 236.814 274.32 236.687L268.742 233.466C268.623 233.402 268.491 233.367 268.357 233.364C268.222 233.361 268.089 233.39 267.968 233.448L267.972 233.45ZM260.921 237.521L256.096 240.307C255.896 240.425 255.903 240.624 256.124 240.751L261.702 243.972C261.82 244.035 261.951 244.069 262.085 244.072C262.218 244.074 262.351 244.046 262.472 243.988L267.296 241.202C267.502 241.084 267.489 240.885 267.269 240.758L261.69 237.537C261.571 237.473 261.44 237.438 261.305 237.435C261.171 237.432 261.038 237.461 260.917 237.519L260.921 237.521ZM225.685 283.172C225.803 283.235 225.934 283.269 226.067 283.271C226.201 283.274 226.333 283.246 226.454 283.188L231.279 280.402C231.484 280.284 231.472 280.084 231.251 279.958L225.673 276.737C225.555 276.674 225.423 276.64 225.29 276.637C225.156 276.634 225.023 276.663 224.903 276.721L220.079 279.506C219.874 279.625 219.886 279.824 220.106 279.951L225.685 283.172ZM204.506 270.088L199.682 272.873C199.477 272.991 199.489 273.19 199.709 273.318L205.288 276.538C205.406 276.601 205.537 276.635 205.671 276.638C205.804 276.641 205.937 276.612 206.058 276.554L210.882 273.769C211.087 273.65 211.075 273.451 210.855 273.324L205.276 270.104C205.158 270.041 205.026 270.006 204.893 270.004C204.759 270.001 204.626 270.03 204.506 270.088ZM215.855 279.64C215.973 279.703 216.104 279.737 216.238 279.74C216.371 279.742 216.504 279.714 216.625 279.656L221.45 276.87C221.65 276.752 221.642 276.553 221.422 276.426L215.844 273.205C215.725 273.142 215.594 273.108 215.461 273.105C215.327 273.102 215.194 273.131 215.074 273.189L210.249 275.975C210.044 276.093 210.057 276.292 210.277 276.419L215.855 279.64ZM238.131 285.64L242.956 282.855C243.156 282.736 243.148 282.537 242.929 282.41L237.35 279.189C237.231 279.126 237.1 279.092 236.966 279.09C236.833 279.087 236.7 279.116 236.58 279.174L231.755 281.959C231.555 282.077 231.563 282.277 231.783 282.404L237.361 285.624C237.478 285.687 237.609 285.722 237.743 285.726C237.877 285.729 238.01 285.701 238.131 285.644V285.64ZM230.31 289.695C230.428 289.758 230.559 289.792 230.693 289.795C230.826 289.798 230.959 289.769 231.08 289.711L235.904 286.928C236.109 286.809 236.097 286.611 235.877 286.484L230.298 283.263C230.18 283.2 230.049 283.165 229.915 283.163C229.781 283.16 229.649 283.189 229.529 283.247L224.704 286.032C224.504 286.151 224.511 286.349 224.732 286.476L230.31 289.695ZM211.558 266.013L206.733 268.798C206.528 268.917 206.541 269.115 206.761 269.242L212.339 272.463C212.457 272.526 212.588 272.56 212.722 272.563C212.855 272.565 212.988 272.537 213.109 272.479L217.933 269.694C218.139 269.575 218.126 269.377 217.906 269.249L212.328 266.029C212.209 265.966 212.078 265.932 211.944 265.93C211.81 265.928 211.678 265.958 211.558 266.017V266.013ZM246.814 245.657L241.989 248.443C241.789 248.561 241.797 248.76 242.017 248.887L247.596 252.108C247.714 252.171 247.845 252.205 247.978 252.207C248.112 252.21 248.244 252.182 248.365 252.124L253.19 249.338C253.395 249.22 253.382 249.021 253.163 248.894L247.584 245.673C247.465 245.611 247.334 245.577 247.2 245.575C247.066 245.573 246.934 245.602 246.814 245.661V245.657ZM218.614 261.942L213.789 264.728C213.584 264.846 213.596 265.046 213.816 265.172L219.394 268.393C219.512 268.456 219.643 268.49 219.777 268.493C219.91 268.496 220.043 268.467 220.164 268.409L224.989 265.628C225.194 265.509 225.181 265.31 224.961 265.183L219.383 261.962C219.264 261.898 219.132 261.864 218.998 261.861C218.863 261.858 218.73 261.887 218.609 261.946L218.614 261.942ZM253.87 241.586L249.046 244.372C248.841 244.49 248.853 244.689 249.074 244.816L254.652 248.037C254.77 248.1 254.901 248.134 255.035 248.137C255.168 248.139 255.301 248.111 255.422 248.053L260.246 245.267C260.451 245.149 260.439 244.95 260.219 244.823L254.64 241.602C254.521 241.539 254.388 241.505 254.254 241.503C254.119 241.501 253.986 241.53 253.865 241.59L253.87 241.586ZM239.77 249.729L234.946 252.514C234.74 252.632 234.752 252.831 234.973 252.958L240.552 256.179C240.67 256.242 240.801 256.276 240.934 256.278C241.068 256.281 241.2 256.253 241.321 256.195L246.146 253.409C246.346 253.291 246.339 253.092 246.118 252.965L240.539 249.744C240.42 249.68 240.288 249.645 240.153 249.642C240.018 249.639 239.884 249.668 239.763 249.728L239.77 249.729ZM232.719 253.799L227.894 256.585C227.689 256.703 227.701 256.902 227.921 257.029L233.5 260.25C233.618 260.313 233.749 260.347 233.883 260.349C234.016 260.352 234.149 260.324 234.27 260.266L239.095 257.481C239.295 257.362 239.287 257.163 239.067 257.036L233.489 253.815C233.369 253.751 233.237 253.717 233.102 253.715C232.966 253.713 232.833 253.743 232.712 253.803L232.719 253.799ZM225.668 257.871L220.843 260.656C220.638 260.774 220.65 260.973 220.87 261.1L226.449 264.321C226.567 264.384 226.698 264.418 226.832 264.421C226.965 264.423 227.098 264.395 227.219 264.337L232.043 261.552C232.248 261.433 232.236 261.234 232.016 261.107L226.437 257.886C226.317 257.822 226.185 257.788 226.05 257.786C225.915 257.785 225.782 257.815 225.661 257.875L225.668 257.871ZM261.714 262.826L266.538 260.041C266.743 259.923 266.731 259.723 266.511 259.597L260.932 256.376C260.814 256.313 260.683 256.278 260.549 256.276C260.415 256.273 260.283 256.302 260.163 256.36L255.338 259.145C255.133 259.264 255.145 259.462 255.366 259.59L260.944 262.811C261.061 262.873 261.191 262.907 261.323 262.91C261.456 262.913 261.587 262.885 261.707 262.828L261.714 262.826ZM323.643 201.304L318.819 204.09C318.614 204.208 318.626 204.407 318.846 204.534L324.425 207.755C324.543 207.818 324.674 207.852 324.808 207.855C324.941 207.857 325.074 207.829 325.195 207.771L330.019 204.985C330.224 204.867 330.212 204.668 329.992 204.541L324.413 201.32C324.293 201.256 324.161 201.222 324.026 201.22C323.89 201.218 323.757 201.248 323.636 201.308L323.643 201.304ZM315.107 206.232L310.283 209.018C310.078 209.136 310.09 209.335 310.31 209.462L315.889 212.683C316.007 212.746 316.138 212.78 316.271 212.782C316.405 212.785 316.537 212.757 316.658 212.699L321.483 209.913C321.683 209.795 321.676 209.596 321.456 209.469L315.877 206.248C315.757 206.184 315.625 206.15 315.49 206.148C315.354 206.146 315.221 206.176 315.1 206.236L315.107 206.232ZM330.694 197.232L325.87 200.018C325.665 200.136 325.677 200.335 325.897 200.462L331.476 203.683C331.594 203.746 331.725 203.78 331.858 203.782C331.992 203.785 332.124 203.756 332.245 203.698L337.07 200.913C337.275 200.795 337.263 200.596 337.043 200.469L331.464 197.248C331.344 197.185 331.212 197.151 331.077 197.149C330.943 197.147 330.81 197.177 330.689 197.237L330.694 197.232ZM294.194 234.869L299.019 232.084C299.219 231.965 299.212 231.766 298.991 231.639L293.413 228.418C293.294 228.355 293.163 228.321 293.03 228.318C292.896 228.315 292.763 228.344 292.643 228.402L287.819 231.188C287.619 231.306 287.626 231.505 287.846 231.632L293.425 234.853C293.542 234.916 293.672 234.95 293.804 234.954C293.937 234.957 294.068 234.93 294.189 234.874L294.194 234.869ZM338.513 193.177C338.395 193.114 338.264 193.08 338.13 193.077C337.996 193.074 337.864 193.103 337.744 193.161L332.92 195.946C332.715 196.065 332.727 196.264 332.947 196.391L338.526 199.612C338.644 199.675 338.775 199.709 338.908 199.711C339.042 199.714 339.174 199.686 339.295 199.628L344.119 196.842C344.319 196.724 344.313 196.525 344.092 196.398L338.513 193.177ZM268.763 258.754L273.588 255.969C273.788 255.85 273.78 255.651 273.56 255.524L267.982 252.303C267.863 252.24 267.732 252.206 267.599 252.203C267.465 252.2 267.332 252.229 267.212 252.287L262.387 255.073C262.182 255.192 262.195 255.391 262.415 255.517L267.993 258.738C268.11 258.801 268.24 258.835 268.373 258.839C268.505 258.843 268.637 258.815 268.758 258.759L268.763 258.754ZM355.234 208.83L360.059 206.045C360.259 205.926 360.251 205.727 360.031 205.6L354.452 202.379C354.334 202.316 354.203 202.282 354.069 202.279C353.935 202.277 353.803 202.306 353.683 202.364L348.858 205.149C348.658 205.267 348.666 205.466 348.886 205.594L354.464 208.814C354.581 208.877 354.711 208.911 354.844 208.915C354.976 208.918 355.108 208.891 355.229 208.835L355.234 208.83ZM340.214 208.3L345.038 205.514C345.243 205.396 345.231 205.197 345.01 205.07L339.432 201.849C339.314 201.786 339.182 201.752 339.049 201.749C338.915 201.746 338.782 201.775 338.662 201.833L333.838 204.619C333.633 204.737 333.645 204.936 333.865 205.063L339.444 208.284C339.561 208.347 339.691 208.381 339.824 208.385C339.956 208.388 340.088 208.361 340.209 208.305L340.214 208.3ZM346.483 197.778C346.365 197.715 346.233 197.681 346.1 197.678C345.966 197.675 345.833 197.704 345.713 197.762L340.889 200.548C340.689 200.666 340.696 200.865 340.916 200.992L346.495 204.213C346.613 204.276 346.744 204.31 346.877 204.312C347.011 204.315 347.143 204.287 347.264 204.229L352.089 201.443C352.289 201.325 352.282 201.126 352.062 200.999L346.483 197.778ZM347.968 196.921L361.516 204.743C361.634 204.806 361.765 204.84 361.898 204.842C362.032 204.845 362.164 204.817 362.285 204.759L367.11 201.974C367.31 201.855 367.303 201.656 367.083 201.529L353.534 193.707C353.415 193.644 353.284 193.61 353.151 193.607C353.017 193.604 352.884 193.633 352.764 193.691L347.94 196.477C347.73 196.6 347.742 196.799 347.963 196.928L347.968 196.921ZM331.611 205.905L326.786 208.69C326.581 208.808 326.593 209.007 326.814 209.134L332.393 212.355C332.511 212.418 332.642 212.452 332.775 212.454C332.909 212.457 333.041 212.429 333.162 212.371L337.987 209.585C338.187 209.467 338.18 209.268 337.959 209.141L332.376 205.928C332.258 205.864 332.127 205.83 331.993 205.827C331.859 205.824 331.726 205.852 331.606 205.91L331.611 205.905ZM278.541 236.544L273.716 239.33C273.511 239.448 273.523 239.647 273.744 239.774L279.322 242.995C279.44 243.058 279.571 243.092 279.705 243.094C279.838 243.097 279.971 243.069 280.092 243.011L284.916 240.226C285.122 240.107 285.109 239.908 284.889 239.781L279.31 236.56C279.191 236.497 279.058 236.463 278.924 236.461C278.789 236.459 278.656 236.489 278.536 236.549L278.541 236.544ZM347.414 212.885C347.532 212.948 347.663 212.982 347.796 212.984C347.93 212.987 348.062 212.959 348.183 212.901L353.008 210.116C353.208 209.997 353.201 209.798 352.98 209.671L347.401 206.45C347.283 206.387 347.152 206.353 347.018 206.35C346.884 206.347 346.752 206.376 346.632 206.434L341.807 209.22C341.607 209.338 341.614 209.538 341.835 209.664L347.414 212.885ZM285.589 232.479L280.764 235.264C280.559 235.382 280.572 235.581 280.792 235.708L286.368 238.928C286.486 238.991 286.617 239.025 286.751 239.028C286.884 239.03 287.017 239.002 287.138 238.944L291.963 236.158C292.168 236.04 292.155 235.841 291.935 235.714L286.357 232.493C286.239 232.43 286.108 232.397 285.974 232.394C285.841 232.392 285.709 232.421 285.589 232.479ZM232.734 279.099C232.852 279.162 232.983 279.196 233.117 279.198C233.251 279.201 233.383 279.172 233.504 279.114L238.328 276.329C238.533 276.211 238.521 276.012 238.301 275.885L232.722 272.664C232.604 272.601 232.473 272.567 232.339 272.564C232.205 272.561 232.073 272.59 231.953 272.648L227.128 275.434C226.923 275.552 226.936 275.751 227.155 275.878L232.734 279.099ZM222.127 269.118L217.303 271.904C217.103 272.022 217.11 272.221 217.33 272.348L222.909 275.569C223.027 275.632 223.158 275.666 223.291 275.668C223.425 275.671 223.557 275.643 223.678 275.585L228.503 272.799C228.708 272.681 228.696 272.482 228.475 272.355L222.897 269.134C222.778 269.071 222.647 269.036 222.513 269.034C222.378 269.031 222.246 269.06 222.125 269.118H222.127ZM240.555 275.043L245.379 272.258C245.584 272.14 245.572 271.941 245.352 271.814L239.773 268.593C239.655 268.53 239.523 268.495 239.39 268.493C239.256 268.49 239.123 268.519 239.003 268.577L234.179 271.362C233.974 271.481 233.986 271.68 234.207 271.807L239.785 275.027C239.902 275.089 240.033 275.124 240.167 275.126C240.3 275.129 240.432 275.1 240.553 275.043H240.555ZM247.606 270.973L252.431 268.187C252.636 268.069 252.624 267.87 252.404 267.743L246.824 264.522C246.706 264.459 246.575 264.425 246.441 264.422C246.307 264.419 246.175 264.448 246.055 264.506L241.23 267.291C241.03 267.41 241.038 267.609 241.258 267.736L246.837 270.957C246.954 271.019 247.085 271.053 247.218 271.056C247.351 271.059 247.483 271.03 247.604 270.973H247.606ZM254.657 266.901L259.482 264.116C259.687 263.997 259.674 263.799 259.455 263.671L253.876 260.45C253.757 260.387 253.626 260.353 253.492 260.351C253.359 260.348 253.226 260.377 253.106 260.435L248.282 263.22C248.077 263.338 248.089 263.538 248.309 263.664L253.888 266.885C254.005 266.947 254.136 266.982 254.269 266.984C254.402 266.987 254.534 266.958 254.655 266.901H254.657ZM229.178 265.047L224.354 267.832C224.149 267.951 224.161 268.15 224.381 268.277L229.96 271.497C230.078 271.56 230.209 271.594 230.343 271.597C230.477 271.6 230.609 271.571 230.73 271.513L235.554 268.728C235.759 268.61 235.747 268.411 235.527 268.283L229.948 265.063C229.829 265 229.698 264.965 229.564 264.963C229.429 264.96 229.297 264.989 229.176 265.047H229.178ZM236.23 260.976L231.405 263.761C231.2 263.88 231.212 264.078 231.432 264.206L237.011 267.427C237.129 267.49 237.26 267.524 237.394 267.526C237.527 267.529 237.66 267.501 237.781 267.443L242.606 264.657C242.806 264.538 242.798 264.34 242.578 264.213L236.999 260.992C236.88 260.929 236.749 260.894 236.615 260.892C236.481 260.889 236.348 260.918 236.228 260.976H236.23ZM264.435 244.692L259.61 247.477C259.405 247.596 259.418 247.794 259.638 247.922L265.216 251.142C265.334 251.205 265.465 251.239 265.599 251.242C265.733 251.245 265.865 251.216 265.986 251.158L270.811 248.373C271.016 248.255 271.003 248.055 270.784 247.928L265.205 244.708C265.086 244.644 264.955 244.61 264.821 244.607C264.686 244.604 264.553 244.633 264.433 244.692H264.435ZM257.384 248.763L252.559 251.548C252.354 251.666 252.366 251.866 252.587 251.992L258.165 255.213C258.283 255.276 258.414 255.31 258.548 255.313C258.681 255.316 258.814 255.287 258.935 255.229L263.759 252.444C263.964 252.325 263.952 252.127 263.732 251.999L258.153 248.778C258.034 248.715 257.903 248.68 257.769 248.678C257.635 248.675 257.502 248.704 257.382 248.763H257.384ZM271.484 240.62L266.66 243.406C266.455 243.524 266.467 243.723 266.687 243.85L272.266 247.071C272.384 247.134 272.515 247.168 272.648 247.171C272.782 247.174 272.914 247.145 273.035 247.087L277.86 244.301C278.065 244.183 278.053 243.984 277.832 243.857L272.254 240.636C272.136 240.574 272.006 240.54 271.873 240.537C271.74 240.535 271.609 240.563 271.489 240.62H271.484ZM243.279 256.905L238.455 259.69C238.25 259.809 238.262 260.008 238.482 260.134L244.061 263.355C244.179 263.418 244.31 263.452 244.443 263.455C244.577 263.458 244.709 263.429 244.83 263.371L249.655 260.586C249.86 260.467 249.848 260.269 249.627 260.141L244.049 256.921C243.931 256.858 243.799 256.823 243.666 256.821C243.532 256.818 243.399 256.847 243.279 256.905ZM250.33 252.834L245.506 255.619C245.301 255.738 245.313 255.937 245.533 256.064L251.112 259.285C251.23 259.348 251.361 259.382 251.494 259.384C251.628 259.387 251.76 259.359 251.881 259.301L256.706 256.515C256.906 256.396 256.899 256.197 256.679 256.071L251.1 252.85C250.982 252.787 250.85 252.753 250.717 252.75C250.583 252.747 250.45 252.776 250.33 252.834ZM245.182 281.573L250.007 278.788C250.212 278.669 250.199 278.471 249.98 278.343L244.401 275.122C244.282 275.059 244.151 275.025 244.017 275.022C243.884 275.02 243.751 275.049 243.631 275.107L238.807 277.892C238.602 278.011 238.614 278.209 238.834 278.336L244.413 281.558C244.531 281.62 244.662 281.654 244.795 281.657C244.929 281.659 245.061 281.631 245.182 281.573ZM203.804 277.395L198.225 274.175C198.107 274.112 197.975 274.077 197.842 274.075C197.708 274.072 197.575 274.101 197.455 274.159L192.631 276.944C192.425 277.063 192.438 277.261 192.658 277.389L198.236 280.61C198.354 280.672 198.485 280.706 198.619 280.709C198.753 280.712 198.885 280.683 199.006 280.625L203.831 277.84C204.036 277.721 204.023 277.528 203.804 277.395ZM214.371 280.495L208.789 277.276C208.671 277.213 208.54 277.179 208.406 277.176C208.272 277.173 208.14 277.202 208.02 277.26L200.597 281.546C200.392 281.664 200.405 281.863 200.625 281.99L206.203 285.211C206.321 285.274 206.452 285.308 206.586 285.31C206.72 285.313 206.852 285.284 206.973 285.226L214.395 280.941C214.603 280.823 214.589 280.628 214.371 280.497V280.495ZM195.244 271.166L189.666 267.946C189.548 267.883 189.416 267.848 189.283 267.845C189.149 267.843 189.016 267.871 188.896 267.93L182.958 271.358C182.753 271.476 182.765 271.675 182.986 271.802L188.564 275.023C188.682 275.086 188.813 275.12 188.947 275.123C189.08 275.125 189.213 275.097 189.334 275.039L195.272 271.611C195.477 271.495 195.464 271.295 195.244 271.168V271.166ZM199.797 268.538C199.915 268.601 200.046 268.635 200.179 268.637C200.313 268.64 200.445 268.612 200.566 268.554L205.391 265.768C205.596 265.65 205.584 265.451 205.364 265.324L199.789 262.105C199.671 262.042 199.539 262.008 199.406 262.005C199.272 262.002 199.139 262.031 199.019 262.089L194.195 264.875C193.995 264.993 194.002 265.192 194.222 265.319L199.797 268.538ZM224.197 284.025L218.619 280.804C218.501 280.741 218.369 280.707 218.236 280.704C218.102 280.701 217.969 280.73 217.849 280.788L208.571 286.145C208.366 286.263 208.378 286.462 208.598 286.589L214.177 289.81C214.295 289.873 214.426 289.907 214.559 289.909C214.693 289.912 214.825 289.884 214.946 289.826L224.225 284.469C224.429 284.353 224.416 284.154 224.196 284.028L224.197 284.025ZM228.827 290.554L223.248 287.334C223.13 287.271 222.999 287.236 222.865 287.234C222.731 287.231 222.599 287.26 222.479 287.318L216.541 290.746C216.335 290.864 216.348 291.064 216.568 291.19L222.147 294.411C222.265 294.474 222.396 294.508 222.529 294.51C222.663 294.513 222.795 294.485 222.916 294.427L228.854 290.999C229.058 290.883 229.045 290.683 228.826 290.556L228.827 290.554ZM252.227 238.269C252.345 238.332 252.476 238.366 252.609 238.368C252.743 238.371 252.875 238.343 252.996 238.285L257.821 235.499C258.021 235.381 258.014 235.183 257.794 235.056L252.215 231.834C252.096 231.771 251.965 231.737 251.832 231.734C251.698 231.731 251.565 231.76 251.445 231.818L246.621 234.604C246.416 234.723 246.428 234.921 246.648 235.048L252.227 238.269ZM238.127 246.411C238.245 246.474 238.376 246.508 238.51 246.511C238.644 246.514 238.776 246.485 238.897 246.427L243.721 243.641C243.926 243.523 243.914 243.325 243.694 243.197L238.115 239.977C237.997 239.914 237.866 239.879 237.732 239.877C237.598 239.874 237.466 239.903 237.346 239.961L232.521 242.746C232.316 242.865 232.329 243.063 232.548 243.191L238.127 246.411ZM206.854 264.467C206.972 264.53 207.103 264.564 207.236 264.566C207.37 264.569 207.502 264.541 207.623 264.483L212.448 261.697C212.653 261.579 212.641 261.38 212.421 261.253L206.842 258.032C206.723 257.969 206.592 257.935 206.459 257.932C206.325 257.929 206.192 257.958 206.072 258.016L201.248 260.802C201.043 260.92 201.055 261.119 201.275 261.246L206.854 264.467ZM245.178 242.34C245.296 242.403 245.427 242.437 245.561 242.44C245.694 242.443 245.827 242.414 245.948 242.356L250.773 239.571C250.978 239.452 250.965 239.253 250.745 239.126L245.167 235.905C245.048 235.842 244.917 235.808 244.783 235.806C244.65 235.803 244.517 235.832 244.397 235.89L239.573 238.675C239.368 238.793 239.38 238.992 239.6 239.12L245.178 242.34ZM231.078 250.483C231.196 250.545 231.327 250.579 231.461 250.582C231.595 250.585 231.727 250.556 231.848 250.498L236.672 247.713C236.877 247.595 236.865 247.395 236.645 247.268L231.066 244.048C230.948 243.985 230.816 243.95 230.683 243.948C230.549 243.945 230.416 243.974 230.296 244.032L225.472 246.817C225.267 246.936 225.279 247.135 225.499 247.262L231.078 250.483ZM232.709 291.083C232.591 291.02 232.459 290.985 232.326 290.983C232.192 290.98 232.059 291.009 231.939 291.067L224.517 295.352C224.312 295.47 224.325 295.67 224.545 295.797L230.123 299.017C230.241 299.08 230.372 299.114 230.506 299.117C230.64 299.12 230.772 299.091 230.893 299.033L238.315 294.748C238.52 294.63 238.508 294.431 238.288 294.304L232.709 291.083ZM220.951 256.328C221.069 256.391 221.2 256.425 221.333 256.427C221.467 256.43 221.599 256.401 221.72 256.343L226.545 253.558C226.75 253.44 226.737 253.241 226.517 253.114L220.939 249.893C220.82 249.83 220.689 249.796 220.556 249.793C220.422 249.79 220.289 249.819 220.169 249.877L215.345 252.663C215.139 252.781 215.152 252.98 215.372 253.107L220.951 256.328ZM213.899 260.399C214.017 260.462 214.148 260.496 214.282 260.499C214.415 260.501 214.548 260.473 214.669 260.415L219.489 257.628C219.694 257.51 219.682 257.311 219.462 257.184L213.883 253.963C213.765 253.9 213.634 253.866 213.5 253.863C213.366 253.86 213.234 253.889 213.114 253.947L208.289 256.728C208.084 256.846 208.096 257.045 208.317 257.172L213.899 260.399ZM363.336 215.659C363.217 215.596 363.086 215.562 362.953 215.559C362.819 215.556 362.686 215.585 362.566 215.643L350.689 222.499C350.489 222.617 350.496 222.816 350.716 222.943L356.296 226.164C356.414 226.227 356.545 226.261 356.678 226.263C356.812 226.266 356.944 226.238 357.065 226.18L368.941 219.323C369.141 219.205 369.134 219.006 368.913 218.879L363.336 215.659ZM347.749 224.659C347.63 224.596 347.499 224.562 347.366 224.559C347.232 224.556 347.099 224.585 346.979 224.643L342.154 227.429C341.954 227.547 341.962 227.746 342.182 227.873L347.76 231.094C347.878 231.157 348.009 231.191 348.143 231.193C348.276 231.196 348.409 231.168 348.53 231.11L353.355 228.324C353.555 228.206 353.547 228.007 353.327 227.88L347.749 224.659ZM252.234 277.504L257.058 274.719C257.263 274.6 257.251 274.401 257.031 274.274L251.452 271.053C251.334 270.99 251.203 270.956 251.069 270.953C250.935 270.951 250.803 270.98 250.683 271.038L245.858 273.823C245.653 273.941 245.665 274.14 245.885 274.267L251.464 277.488C251.582 277.55 251.713 277.584 251.847 277.586C251.981 277.589 252.113 277.56 252.234 277.502V277.504ZM333.646 232.804C333.527 232.741 333.396 232.707 333.263 232.704C333.129 232.701 332.996 232.73 332.876 232.788L328.052 235.574C327.852 235.693 327.859 235.891 328.079 236.018L333.658 239.239C333.776 239.302 333.907 239.336 334.04 239.338C334.174 239.341 334.306 239.313 334.427 239.255L339.252 236.469C339.452 236.351 339.445 236.152 339.225 236.025L333.646 232.804ZM370.389 211.587C370.271 211.524 370.139 211.49 370.006 211.487C369.872 211.484 369.739 211.513 369.619 211.571L364.789 214.357C364.589 214.475 364.596 214.674 364.816 214.801L370.395 218.022C370.513 218.085 370.644 218.119 370.777 218.121C370.911 218.124 371.043 218.096 371.164 218.038L375.989 215.252C376.189 215.134 376.182 214.935 375.962 214.808L370.389 211.587ZM383.019 210.737L369.471 202.914C369.353 202.851 369.221 202.817 369.088 202.814C368.954 202.811 368.821 202.84 368.701 202.898L363.876 205.684C363.676 205.802 363.684 206.002 363.904 206.128L377.452 213.951C377.57 214.014 377.701 214.048 377.835 214.051C377.968 214.053 378.101 214.025 378.222 213.967L383.046 211.181C383.249 211.063 383.237 210.864 383.017 210.737H383.019ZM307.298 248.012C307.18 247.949 307.049 247.915 306.915 247.912C306.781 247.909 306.649 247.938 306.529 247.997L300.589 251.428C300.384 251.546 300.396 251.745 300.616 251.872L306.195 255.093C306.313 255.156 306.444 255.19 306.578 255.192C306.712 255.195 306.844 255.166 306.965 255.108L312.902 251.68C313.102 251.562 313.095 251.363 312.875 251.236L307.298 248.012ZM325.11 237.728C324.992 237.665 324.861 237.631 324.727 237.628C324.593 237.626 324.461 237.655 324.341 237.713L316.918 241.998C316.713 242.116 316.726 242.315 316.945 242.442L322.524 245.663C322.642 245.726 322.773 245.76 322.907 245.762C323.04 245.765 323.173 245.737 323.294 245.679L330.716 241.394C330.916 241.275 330.909 241.077 330.689 240.949L325.11 237.728ZM290.967 257.441C290.848 257.378 290.717 257.344 290.584 257.341C290.45 257.338 290.317 257.367 290.197 257.425L250.489 280.351C250.284 280.469 250.296 280.668 250.516 280.795L256.095 284.016C256.213 284.079 256.344 284.113 256.477 284.115C256.611 284.118 256.743 284.09 256.864 284.032L296.574 261.105C296.779 260.987 296.767 260.788 296.547 260.661L290.967 257.441ZM249.031 281.653C248.913 281.59 248.781 281.556 248.648 281.553C248.514 281.55 248.381 281.579 248.261 281.637L242.323 285.065C242.118 285.184 242.13 285.383 242.35 285.51L247.929 288.731C248.047 288.794 248.178 288.828 248.311 288.83C248.445 288.833 248.577 288.804 248.698 288.746L254.637 285.318C254.837 285.2 254.829 285.001 254.609 284.874L249.031 281.653ZM299.131 252.727C299.012 252.664 298.881 252.63 298.748 252.627C298.614 252.624 298.481 252.653 298.361 252.711L292.423 256.139C292.218 256.258 292.23 256.457 292.45 256.584L298.029 259.804C298.147 259.867 298.278 259.901 298.412 259.904C298.545 259.907 298.678 259.879 298.799 259.821L304.737 256.392C304.942 256.274 304.929 256.075 304.709 255.948L299.131 252.727ZM240.865 286.367C240.747 286.304 240.615 286.27 240.482 286.267C240.348 286.264 240.215 286.293 240.095 286.351L234.157 289.779C233.952 289.898 233.965 290.097 234.185 290.224L239.763 293.445C239.881 293.508 240.012 293.542 240.146 293.545C240.279 293.547 240.412 293.519 240.533 293.461L246.471 290.032C246.676 289.914 246.664 289.715 246.444 289.588L240.865 286.367ZM315.465 243.3C315.347 243.237 315.216 243.202 315.082 243.199C314.948 243.197 314.816 243.225 314.696 243.284L308.757 246.712C308.557 246.83 308.565 247.029 308.785 247.156L314.364 250.377C314.482 250.44 314.613 250.474 314.746 250.476C314.88 250.479 315.012 250.451 315.133 250.393L321.071 246.964C321.271 246.846 321.264 246.647 321.044 246.52L315.465 243.3ZM340.697 228.728C340.579 228.665 340.448 228.631 340.314 228.628C340.18 228.625 340.048 228.654 339.928 228.712L335.103 231.498C334.903 231.616 334.91 231.815 335.131 231.942L340.709 235.163C340.827 235.226 340.958 235.26 341.092 235.262C341.225 235.265 341.358 235.237 341.479 235.179L346.303 232.394C346.503 232.275 346.496 232.076 346.276 231.949L340.697 228.728ZM356.147 217.507L360.972 214.722C361.172 214.603 361.165 214.404 360.945 214.277L355.366 211.057C355.248 210.994 355.116 210.959 354.983 210.957C354.849 210.954 354.716 210.983 354.596 211.041L349.772 213.826C349.572 213.944 349.579 214.144 349.799 214.271L355.378 217.491C355.495 217.554 355.627 217.588 355.76 217.591C355.894 217.594 356.026 217.565 356.147 217.507ZM324.621 217.307L329.446 214.522C329.646 214.403 329.638 214.204 329.419 214.077L323.84 210.857C323.722 210.794 323.59 210.759 323.457 210.756C323.323 210.754 323.19 210.782 323.07 210.841L318.246 213.626C318.04 213.745 318.053 213.943 318.273 214.07L323.851 217.291C323.969 217.353 324.1 217.387 324.234 217.389C324.368 217.391 324.5 217.362 324.621 217.304V217.307ZM308.644 244.937L322.744 236.794C322.944 236.676 322.936 236.477 322.716 236.35L317.138 233.129C317.02 233.066 316.888 233.032 316.755 233.029C316.621 233.026 316.488 233.055 316.368 233.113L302.268 241.256C302.063 241.374 302.076 241.573 302.296 241.7L307.874 244.92C307.992 244.982 308.123 245.016 308.257 245.019C308.391 245.021 308.523 244.992 308.644 244.934V244.937ZM348.327 221.566C348.445 221.629 348.576 221.663 348.709 221.665C348.843 221.668 348.975 221.639 349.096 221.581L353.921 218.796C354.126 218.678 354.114 218.479 353.893 218.352L348.314 215.13C348.196 215.067 348.064 215.034 347.931 215.031C347.797 215.028 347.665 215.057 347.545 215.115L342.72 217.901C342.52 218.019 342.528 218.218 342.748 218.345L348.327 221.566ZM341.127 216.98L345.952 214.195C346.152 214.076 346.144 213.877 345.924 213.751L340.345 210.53C340.227 210.467 340.096 210.432 339.962 210.43C339.828 210.427 339.696 210.456 339.576 210.514L334.751 213.299C334.546 213.418 334.558 213.616 334.778 213.743L340.357 216.964C340.475 217.026 340.606 217.06 340.74 217.062C340.874 217.064 341.006 217.035 341.127 216.977V216.98ZM301.589 249.005L306.413 246.219C306.613 246.101 306.606 245.902 306.386 245.775L300.807 242.554C300.689 242.491 300.558 242.457 300.424 242.454C300.29 242.451 300.158 242.48 300.038 242.538L295.213 245.324C295.013 245.442 295.02 245.641 295.241 245.768L300.819 248.989C300.937 249.052 301.068 249.086 301.202 249.089C301.335 249.091 301.468 249.063 301.589 249.005ZM332.735 230.562C332.853 230.625 332.984 230.659 333.118 230.662C333.251 230.664 333.384 230.636 333.505 230.578L338.33 227.792C338.53 227.674 338.522 227.475 338.302 227.348L332.724 224.127C332.605 224.064 332.474 224.03 332.341 224.027C332.207 224.024 332.074 224.053 331.954 224.111L327.129 226.896C326.929 227.015 326.937 227.214 327.157 227.341L332.735 230.562ZM266.335 269.362L271.159 266.576C271.364 266.458 271.352 266.259 271.132 266.132L265.553 262.911C265.435 262.848 265.303 262.814 265.17 262.811C265.036 262.808 264.903 262.837 264.783 262.895L259.959 265.681C259.754 265.799 259.766 265.998 259.986 266.125L265.565 269.346C265.683 269.409 265.815 269.443 265.949 269.445C266.083 269.447 266.216 269.418 266.337 269.36L266.335 269.362ZM273.386 265.291L278.21 262.505C278.415 262.387 278.403 262.188 278.183 262.061L272.604 258.84C272.486 258.777 272.355 258.743 272.221 258.74C272.087 258.737 271.955 258.766 271.835 258.825L267.01 261.61C266.805 261.728 266.817 261.927 267.037 262.054L272.616 265.275C272.734 265.338 272.866 265.372 273 265.375C273.135 265.377 273.268 265.348 273.389 265.289L273.386 265.291ZM259.289 273.428L264.114 270.642C264.319 270.524 264.306 270.325 264.086 270.198L258.508 266.977C258.389 266.914 258.258 266.88 258.124 266.877C257.991 266.875 257.858 266.904 257.738 266.962L252.913 269.747C252.708 269.865 252.721 270.064 252.941 270.191L258.519 273.413C258.637 273.475 258.768 273.509 258.902 273.512C259.036 273.514 259.168 273.486 259.289 273.428ZM287.489 257.147L292.314 254.362C292.519 254.243 292.507 254.044 292.286 253.917L286.708 250.696C286.59 250.633 286.458 250.599 286.325 250.596C286.191 250.593 286.058 250.622 285.938 250.68L281.113 253.466C280.913 253.584 280.921 253.783 281.141 253.91L286.719 257.131C286.837 257.194 286.968 257.228 287.102 257.231C287.235 257.233 287.368 257.205 287.489 257.147ZM280.438 261.217L285.262 258.432C285.467 258.314 285.455 258.115 285.235 257.988L279.656 254.767C279.538 254.704 279.406 254.67 279.273 254.667C279.139 254.664 279.006 254.693 278.886 254.751L274.062 257.537C273.857 257.655 273.869 257.854 274.09 257.981L279.669 261.202C279.787 261.265 279.918 261.299 280.052 261.302C280.186 261.304 280.318 261.275 280.439 261.217H280.438ZM294.538 253.076L299.363 250.29C299.568 250.172 299.556 249.973 299.336 249.846L293.757 246.625C293.639 246.562 293.507 246.528 293.374 246.525C293.24 246.522 293.107 246.551 292.987 246.609L288.163 249.395C287.958 249.513 287.97 249.712 288.19 249.839L293.769 253.06C293.887 253.123 294.019 253.157 294.153 253.16C294.287 253.163 294.42 253.134 294.541 253.076H294.538ZM326.798 192.851C326.916 192.914 327.047 192.948 327.181 192.951C327.314 192.953 327.447 192.925 327.568 192.867L332.392 190.081C332.597 189.962 332.585 189.764 332.365 189.637L330.88 188.779C330.762 188.716 330.63 188.682 330.497 188.679C330.363 188.676 330.23 188.705 330.11 188.763L325.285 191.549C325.085 191.667 325.093 191.866 325.313 191.993L326.798 192.851ZM292.104 215.244C292.222 215.307 292.353 215.341 292.487 215.344C292.621 215.347 292.753 215.318 292.874 215.26L297.698 212.475C297.903 212.357 297.891 212.158 297.671 212.031L292.092 208.81C291.974 208.747 291.843 208.712 291.709 208.71C291.575 208.707 291.443 208.736 291.323 208.794L286.498 211.579C286.293 211.698 286.305 211.897 286.525 212.024L292.104 215.244ZM306.204 207.103C306.322 207.165 306.453 207.199 306.586 207.202C306.72 207.205 306.852 207.176 306.973 207.118L311.798 204.333C312.003 204.214 311.99 204.016 311.771 203.888L306.191 200.667C306.073 200.604 305.942 200.57 305.808 200.567C305.674 200.564 305.542 200.593 305.422 200.652L300.597 203.437C300.397 203.556 300.405 203.755 300.625 203.881L306.204 207.103ZM283.491 220.216C283.609 220.279 283.74 220.313 283.873 220.315C284.007 220.318 284.139 220.289 284.26 220.231L289.085 217.446C289.29 217.328 289.278 217.129 289.057 217.002L283.479 213.781C283.361 213.718 283.229 213.684 283.096 213.681C282.962 213.678 282.829 213.707 282.709 213.765L277.885 216.551C277.68 216.669 277.692 216.868 277.912 216.995L283.491 220.216ZM299.152 211.174C299.27 211.237 299.401 211.271 299.535 211.274C299.668 211.276 299.801 211.248 299.922 211.19L304.747 208.404C304.947 208.286 304.939 208.086 304.719 207.96L299.14 204.739C299.022 204.676 298.891 204.642 298.757 204.639C298.623 204.636 298.491 204.665 298.371 204.723L293.546 207.508C293.341 207.627 293.353 207.826 293.573 207.953L299.152 211.174ZM269.389 228.358C269.507 228.421 269.638 228.455 269.772 228.457C269.906 228.46 270.038 228.431 270.159 228.373L274.983 225.588C275.188 225.47 275.176 225.271 274.956 225.144L269.377 221.923C269.259 221.86 269.128 221.826 268.994 221.823C268.86 221.82 268.728 221.849 268.608 221.907L263.789 224.693C263.589 224.811 263.597 225.01 263.817 225.137L269.389 228.358ZM276.44 224.287C276.558 224.35 276.689 224.384 276.823 224.386C276.956 224.389 277.089 224.361 277.21 224.303L282.035 221.517C282.235 221.399 282.227 221.2 282.007 221.073L276.429 217.852C276.311 217.789 276.179 217.755 276.046 217.752C275.912 217.749 275.779 217.778 275.659 217.836L270.835 220.621C270.629 220.74 270.642 220.939 270.862 221.066L276.44 224.287ZM312.693 200.993C312.811 201.056 312.942 201.09 313.076 201.093C313.209 201.095 313.342 201.067 313.463 201.009L318.288 198.223C318.493 198.105 318.48 197.906 318.26 197.779L316.775 196.921C316.657 196.858 316.526 196.824 316.392 196.821C316.258 196.818 316.126 196.847 316.006 196.905L311.181 199.691C310.976 199.809 310.988 200.008 311.208 200.135L312.693 200.993ZM333.847 188.779C333.965 188.842 334.096 188.876 334.23 188.879C334.364 188.882 334.496 188.853 334.617 188.795L339.442 186.01C339.647 185.891 339.634 185.693 339.414 185.565L337.929 184.708C337.811 184.645 337.68 184.611 337.546 184.608C337.412 184.605 337.28 184.634 337.16 184.693L332.335 187.478C332.135 187.596 332.142 187.795 332.362 187.922L333.847 188.779ZM345.566 195.546C345.684 195.608 345.815 195.642 345.949 195.645C346.083 195.648 346.215 195.619 346.336 195.561L351.161 192.776C351.361 192.657 351.353 192.459 351.134 192.332L345.555 189.111C345.437 189.048 345.305 189.013 345.172 189.01C345.038 189.008 344.905 189.036 344.785 189.095L339.96 191.881C339.76 191.999 339.768 192.198 339.988 192.324L345.566 195.546ZM363.194 213.436L368.018 210.65C368.218 210.533 368.211 210.334 367.991 210.207L362.412 206.986C362.294 206.923 362.163 206.889 362.029 206.886C361.895 206.883 361.763 206.912 361.643 206.97L356.818 209.755C356.618 209.874 356.625 210.072 356.846 210.199L362.424 213.421C362.542 213.484 362.675 213.519 362.809 213.522C362.944 213.524 363.077 213.495 363.199 213.436H363.194ZM319.745 196.921C319.862 196.984 319.994 197.018 320.127 197.021C320.261 197.024 320.393 196.995 320.514 196.937L325.339 194.152C325.544 194.034 325.532 193.835 325.311 193.707L323.826 192.85C323.708 192.787 323.577 192.753 323.443 192.75C323.309 192.747 323.177 192.776 323.057 192.835L318.232 195.62C318.032 195.738 318.039 195.937 318.26 196.064L319.745 196.921ZM262.343 232.428C262.461 232.491 262.592 232.525 262.725 232.528C262.859 232.53 262.991 232.502 263.112 232.444L267.937 229.658C268.142 229.54 268.13 229.341 267.91 229.214L262.331 225.993C262.213 225.93 262.081 225.896 261.948 225.893C261.814 225.89 261.681 225.919 261.561 225.977L256.737 228.763C256.532 228.881 256.544 229.08 256.764 229.207L262.343 232.428Z" fill="#EEF0F6"/>
<path d="M293.613 274.754L341.223 247.266C342.029 246.857 342.919 246.644 343.823 246.644C344.726 246.644 345.617 246.857 346.423 247.266L373.723 263.028C375.158 263.856 375.158 265.199 373.723 266.028L326.109 293.516C325.303 293.925 324.412 294.138 323.509 294.138C322.605 294.138 321.715 293.925 320.909 293.516L293.609 277.754C292.178 276.928 292.178 275.582 293.613 274.754Z" fill="#A3ACC0"/>
<g filter="url(#filter0_d_266_65)">
<path d="M381.166 142.566C381.166 142.563 381.167 142.561 381.169 142.559C381.171 142.557 381.174 142.556 381.176 142.556L381.116 142.516L372.988 137.834C372.518 137.624 371.828 137.824 370.998 138.454C363.434 144.243 353.269 146.037 344.958 143.393C344.422 142.896 343.914 142.37 343.436 141.816C343.386 141.756 343.336 141.696 343.286 141.646H343.276C343.038 141.37 342.754 141.136 342.436 140.956L342.296 140.876L334.158 136.204C333.228 135.764 332.388 136.204 331.828 137.584C323.968 157.114 307.218 176.904 296.048 181.854C295.204 182.233 294.453 182.793 293.848 183.494C293.045 184.366 292.602 185.509 292.608 186.694L294.218 230.544C294.218 243.214 299.568 256.594 310.478 263.104L318.896 267.966L319.046 268.046C323.599 270.602 328.746 271.91 333.966 271.836C335.136 271.836 336.326 271.786 337.556 271.666C339.948 271.27 342.165 270.162 343.916 268.486C368.326 243.276 380.196 209.156 380.196 190.276L381.806 144.406C381.846 143.416 381.606 142.806 381.166 142.566Z" fill="white"/>
</g>
<path d="M381.806 144.406L380.196 190.276C380.196 209.156 368.326 243.276 343.916 268.486C342.165 270.162 339.948 271.271 337.556 271.666C336.326 271.786 335.136 271.836 333.966 271.836C328.746 271.91 323.599 270.603 319.046 268.046L318.896 267.966L318.606 267.786C307.696 261.276 302.346 247.896 302.346 235.226L300.736 191.376C300.73 190.191 301.173 189.048 301.976 188.176C302.581 187.475 303.332 186.915 304.176 186.536C315.346 181.586 332.096 161.796 339.956 142.266C340.516 140.886 341.366 140.436 342.296 140.876L342.436 140.956C342.754 141.137 343.038 141.37 343.276 141.646H343.286C343.336 141.696 343.386 141.756 343.436 141.816C351.776 151.526 368.176 151.516 379.126 143.136C379.956 142.506 380.646 142.306 381.116 142.516L381.176 142.556C381.174 142.556 381.171 142.557 381.169 142.559C381.167 142.561 381.166 142.564 381.166 142.566C381.606 142.806 381.846 143.416 381.806 144.406Z" fill="#0DBF66"/>
<path opacity="0.4" d="M381.12 142.511C380.649 142.301 379.96 142.501 379.13 143.131C368.82 151.021 353.669 151.491 344.98 143.391C353.29 146.041 363.439 144.241 370.999 138.451C371.829 137.821 372.519 137.621 372.989 137.831L381.12 142.511Z" fill="white"/>
<path opacity="0.4" d="M342.301 140.871C341.371 140.431 340.52 140.881 339.961 142.261C332.1 161.791 315.35 181.581 304.18 186.531C303.335 186.91 302.584 187.47 301.98 188.171C301.77 188.41 301.583 188.668 301.42 188.941L293.301 184.251C293.462 183.983 293.646 183.729 293.85 183.491C293.963 183.361 294.083 183.237 294.211 183.121L294.221 183.111C294.27 183.071 294.31 183.021 294.361 182.971C294.41 182.931 294.457 182.887 294.501 182.841C294.964 182.434 295.486 182.1 296.051 181.851C307.221 176.901 323.971 157.111 331.83 137.581C332.391 136.201 333.23 135.761 334.16 136.201L342.301 140.871Z" fill="white"/>
<path d="M294.221 183.101C294.262 183.052 294.309 183.009 294.361 182.971C294.31 183.021 294.27 183.071 294.221 183.111C294.221 183.111 294.211 183.101 294.221 183.101Z" fill="#27DEBF"/>
<path opacity="0.15" d="M294.361 182.971C294.31 183.021 294.27 183.071 294.221 183.111C294.221 183.111 294.211 183.101 294.221 183.101C294.262 183.052 294.309 183.009 294.361 182.971Z" fill="#2533CC"/>
<path opacity="0.15" d="M319.05 268.041L318.899 267.971L310.479 263.101C299.57 256.591 294.22 243.211 294.22 230.541L292.61 186.691C292.592 185.827 292.832 184.977 293.3 184.251L301.419 188.941C300.96 189.667 300.724 190.512 300.74 191.371L302.349 235.221C302.349 247.891 307.7 261.271 318.61 267.781L318.899 267.961L319.05 268.041Z" fill="#2533CC"/>
<path d="M347.77 227.694L334.77 235.194L336.788 211.688C335.233 210.866 334.243 208.844 334.243 205.94C334.243 200.763 337.39 194.75 341.273 192.508C345.156 190.266 348.302 192.646 348.302 197.823C348.223 200.891 347.346 203.885 345.757 206.51L347.77 227.694Z" fill="#2533CC"/>
<path d="M347.77 227.695L335.998 220.895L334.773 235.195L347.77 227.695Z" fill="#373A4A"/>
<path d="M341.273 192.508C338.732 193.974 336.514 197.058 335.278 200.463L345.757 206.513C347.346 203.888 348.223 200.894 348.302 197.826C348.302 192.646 345.155 190.267 341.273 192.508Z" fill="#373A4A"/>
<path d="M178.706 364.263V368.172C178.69 372.765 181.717 377.361 187.786 380.865C196.927 386.143 210.352 387.43 221.594 384.738L232.035 390.766L240.057 388.953L245.532 392.114L245.832 398.731L248.781 400.431L256.189 401.082L261.513 404.052V407.782L268.194 411.639H285.188L291.278 408.125V404.18L236.94 376.753C239.25 374.498 240.598 371.437 240.703 368.211V364.26C239.886 360.446 236.703 358.478 231.635 355.549C219.528 348.559 199.898 348.559 187.791 355.549C182.343 358.695 179.255 360.154 178.706 364.263ZM195.349 359.697C197.274 358.72 199.401 358.212 201.559 358.212C203.717 358.212 205.845 358.72 207.769 359.697C211.199 361.677 211.199 364.888 207.769 366.868C205.845 367.844 203.717 368.353 201.559 368.353C199.401 368.353 197.274 367.844 195.349 366.868C191.919 364.888 191.919 361.677 195.349 359.697Z" fill="#E9EBEF"/>
<path opacity="0.1" d="M178.706 364.263V368.172C178.69 372.765 181.717 377.361 187.786 380.865C196.927 386.143 210.352 387.43 221.594 384.738L232.035 390.766L240.057 388.953L245.532 392.114L245.832 398.731L248.781 400.431L256.189 401.082L261.513 404.052V407.782L268.194 411.639H285.188L291.278 408.125V404.18L236.94 376.753C239.25 374.498 240.598 371.437 240.703 368.211V364.26C239.886 360.446 236.703 358.478 231.635 355.549C219.528 348.559 199.898 348.559 187.791 355.549C182.343 358.695 179.255 360.154 178.706 364.263ZM195.349 359.697C197.274 358.72 199.401 358.212 201.559 358.212C203.717 358.212 205.845 358.72 207.769 359.697C211.199 361.677 211.199 364.888 207.769 366.868C205.845 367.844 203.717 368.353 201.559 368.353C199.401 368.353 197.274 367.844 195.349 366.868C191.919 364.888 191.919 361.677 195.349 359.697Z" fill="#0BA659"/>
<path d="M187.788 376.92C196.929 382.197 210.354 383.484 221.596 380.793L232.037 386.821L240.059 385.007L245.534 388.168L245.834 394.786L248.783 396.486L256.191 397.137L261.967 400.359L261.515 403.837L268.196 407.694H285.188L291.278 404.18L236.94 372.807C243.34 366.018 241.583 357.347 231.635 351.607C219.528 344.617 199.898 344.617 187.791 351.607C175.684 358.597 175.679 369.928 187.788 376.92ZM195.351 355.752C197.276 354.775 199.403 354.266 201.561 354.266C203.72 354.266 205.847 354.775 207.771 355.752C211.201 357.732 211.201 360.942 207.771 362.923C205.847 363.899 203.719 364.408 201.561 364.408C199.404 364.408 197.276 363.899 195.351 362.923C191.919 360.942 191.919 357.728 195.349 355.752H195.351Z" fill="#FCC729"/>
<path opacity="0.3" d="M209.709 378.728C202.024 378.728 194.848 377.028 189.509 373.946C184.83 371.246 182.146 367.714 182.146 364.263C182.146 360.812 184.83 357.283 189.509 354.581C194.852 351.497 202.028 349.799 209.709 349.799C217.39 349.799 224.569 351.499 229.909 354.581C234.588 357.281 237.272 360.813 237.272 364.263C237.272 367.713 234.588 371.243 229.909 373.946C224.569 377.028 217.395 378.728 209.709 378.728ZM209.709 351.173C202.261 351.173 195.33 352.806 190.192 355.773C185.95 358.223 183.516 361.319 183.516 364.265C183.516 367.211 185.95 370.307 190.192 372.758C195.33 375.723 202.261 377.358 209.709 377.358C217.157 377.358 224.089 375.725 229.227 372.758C233.469 370.307 235.902 367.212 235.902 364.265C235.902 361.318 233.469 358.223 229.226 355.773C224.089 352.806 217.158 351.173 209.709 351.173Z" fill="#2533CC"/>
<path opacity="0.1" d="M198.55 380.958V384.902C206.149 386.552 214.019 386.495 221.594 384.737V380.793C214.019 382.551 206.149 382.608 198.55 380.958Z" fill="#2533CC"/>
<path opacity="0.1" d="M232.035 386.821V390.766L240.057 388.952V385.007L232.035 386.821Z" fill="#2533CC"/>
<path opacity="0.1" d="M245.532 388.168V392.113L245.832 398.73V394.785L245.532 388.168Z" fill="#2533CC"/>
<path opacity="0.1" d="M248.78 396.489V400.434L256.188 401.085V397.14L248.78 396.489Z" fill="#2533CC"/>
<path opacity="0.1" d="M285.184 407.697H268.194V411.642H285.184V407.697Z" fill="#2533CC"/>
<path opacity="0.15" d="M291.274 404.183V408.128L285.184 411.642V407.697L287.853 406.156V407.856L289.326 407.006V405.286L291.274 404.183Z" fill="#2533CC"/>
<path d="M289.326 405.288L287.853 406.156V407.856L289.326 407.006V405.288Z" fill="#27DEBF"/>
<path opacity="0.15" d="M289.326 405.288V407.008L233.601 374.828L235.075 373.96L289.326 405.288Z" fill="#2533CC"/>
<path opacity="0.15" d="M235.074 373.964V375.685L233.6 374.832L235.074 373.964Z" fill="#2533CC"/>
<path d="M12.3875 151.689H2.05548C1.73722 151.689 1.43198 151.563 1.20694 151.338C0.981896 151.113 0.855469 150.807 0.855469 150.489C0.855469 150.171 0.981896 149.866 1.20694 149.641C1.43198 149.416 1.73722 149.289 2.05548 149.289H11.2555C11.4193 147.866 11.8721 146.491 12.5862 145.249C13.3003 144.007 14.2606 142.924 15.4083 142.067C16.5559 141.209 17.8666 140.595 19.26 140.262C20.6535 139.93 22.1002 139.885 23.5115 140.131C24.571 138.578 26.0687 137.376 27.8139 136.677C29.5591 135.978 31.4729 135.814 33.3115 136.206C33.7961 133.595 35.0615 131.192 36.9405 129.314C38.8195 127.437 41.2237 126.174 43.8357 125.692C46.4476 125.21 49.1444 125.531 51.5698 126.614C53.9953 127.696 56.0353 129.489 57.4205 131.755C58.6142 131.489 59.8502 131.473 61.0503 131.709C62.2504 131.944 63.3886 132.427 64.3929 133.125C65.3971 133.823 66.2456 134.722 66.8846 135.765C67.5237 136.807 67.9394 137.972 68.1055 139.183H78.4535C78.611 139.183 78.7671 139.214 78.9127 139.275C79.0583 139.335 79.1906 139.423 79.302 139.535C79.4134 139.646 79.5018 139.778 79.5621 139.924C79.6224 140.07 79.6535 140.226 79.6535 140.383C79.6535 140.541 79.6224 140.697 79.5621 140.842C79.5018 140.988 79.4134 141.12 79.302 141.232C79.1906 141.343 79.0583 141.432 78.9127 141.492C78.7671 141.552 78.611 141.583 78.4535 141.583H66.9905C66.6722 141.583 66.367 141.457 66.1419 141.232C65.9169 141.007 65.7905 140.702 65.7905 140.383C65.7903 139.356 65.5443 138.343 65.0731 137.43C64.6018 136.517 63.9189 135.729 63.0814 135.134C62.2439 134.538 61.276 134.152 60.2587 134.007C59.2414 133.862 58.2041 133.962 57.2335 134.299C56.9603 134.394 56.6621 134.387 56.3937 134.28C56.1252 134.172 55.9046 133.971 55.7725 133.714C54.7053 131.628 52.9845 129.948 50.8729 128.932C48.7613 127.916 46.3751 127.619 44.0789 128.087C41.7827 128.555 39.7028 129.761 38.157 131.523C36.6111 133.284 35.6844 135.503 35.5185 137.84C35.5051 138.028 35.4481 138.209 35.3518 138.37C35.2556 138.531 35.1228 138.668 34.9643 138.768C34.8058 138.869 34.6258 138.931 34.439 138.949C34.2521 138.968 34.0636 138.942 33.8885 138.874C32.2912 138.255 30.5232 138.236 28.9134 138.823C27.3035 139.409 25.9614 140.56 25.1365 142.061C25.0074 142.295 24.8037 142.48 24.5579 142.585C24.312 142.69 24.0381 142.71 23.7795 142.642C22.5779 142.324 21.3194 142.287 20.101 142.532C18.8826 142.777 17.7367 143.299 16.7518 144.057C15.7668 144.815 14.969 145.789 14.4199 146.904C13.8708 148.019 13.5849 149.245 13.5845 150.488C13.5847 150.806 13.4588 151.111 13.2344 151.336C13.01 151.562 12.7054 151.688 12.3875 151.689Z" fill="#A3ACC0"/>
<path d="M464.144 90.4864H476.559C476.941 90.4864 477.307 90.3346 477.578 90.0645C477.848 89.7943 478 89.4279 478 89.0459C478 88.6638 477.848 88.2974 477.578 88.0273C477.307 87.7571 476.941 87.6054 476.559 87.6054H465.503C465.306 85.8957 464.762 84.2444 463.904 82.7525C463.046 81.2607 461.893 79.9598 460.514 78.9298C459.135 77.8998 457.561 77.1623 455.887 76.7626C454.213 76.3629 452.475 76.3094 450.78 76.6054C449.507 74.7394 447.707 73.2946 445.611 72.4549C443.514 71.6152 441.214 71.4187 439.005 71.8904C438.423 68.7531 436.903 65.8662 434.646 63.6109C432.388 61.3557 429.5 59.8383 426.362 59.2591C423.224 58.6799 419.985 59.0661 417.071 60.3669C414.157 61.6676 411.707 63.8216 410.043 66.5444C408.609 66.2242 407.124 66.205 405.682 66.4881C404.241 66.7712 402.873 67.3504 401.667 68.1891C400.461 69.0277 399.441 70.1076 398.674 71.3604C397.906 72.6132 397.407 74.0117 397.207 75.4674H384.778C384.403 75.4773 384.046 75.6334 383.784 75.9024C383.522 76.1715 383.375 76.5323 383.375 76.9079C383.375 77.2835 383.522 77.6442 383.784 77.9133C384.046 78.1824 384.403 78.3385 384.778 78.3484H398.552C398.934 78.3484 399.301 78.1966 399.571 77.9263C399.841 77.6561 399.993 77.2896 399.993 76.9074C399.993 75.673 400.289 74.4565 400.855 73.3595C401.421 72.2626 402.241 71.317 403.247 70.6017C404.253 69.8864 405.416 69.4222 406.638 69.2479C407.86 69.0735 409.106 69.194 410.272 69.5994C410.6 69.7136 410.958 69.7058 411.28 69.5771C411.603 69.4485 411.868 69.2079 412.027 68.8994C413.309 66.3934 415.377 64.376 417.913 63.1555C420.45 61.935 423.316 61.5785 426.075 62.1404C428.833 62.7024 431.331 64.1519 433.188 66.2675C435.045 68.3831 436.159 71.0485 436.358 73.8564C436.374 74.0815 436.442 74.2997 436.558 74.4935C436.673 74.6873 436.833 74.8512 437.023 74.9721C437.214 75.093 437.43 75.1674 437.655 75.1893C437.879 75.2112 438.106 75.1801 438.316 75.0984C440.235 74.3541 442.359 74.332 444.293 75.0363C446.227 75.7407 447.839 77.1234 448.83 78.9274C448.985 79.2093 449.229 79.4313 449.524 79.5582C449.82 79.685 450.149 79.7094 450.46 79.6274C451.903 79.2458 453.415 79.2006 454.879 79.4953C456.342 79.7901 457.718 80.4169 458.902 81.3274C460.085 82.238 461.043 83.408 461.703 84.7473C462.362 86.0866 462.705 87.5594 462.706 89.0524C462.708 89.4329 462.86 89.7973 463.129 90.066C463.399 90.3347 463.764 90.4859 464.144 90.4864Z" fill="#A3ACC0"/>
<path d="M92.8622 56.7132H89.3162V53.1642C89.3226 52.855 89.2673 52.5477 89.1534 52.2601C89.0395 51.9726 88.8694 51.7107 88.653 51.4898C88.4366 51.2689 88.1783 51.0934 87.8932 50.9735C87.6081 50.8537 87.302 50.792 86.9927 50.792C86.6835 50.792 86.3773 50.8537 86.0922 50.9735C85.8071 51.0934 85.5488 51.2689 85.3324 51.4898C85.116 51.7107 84.9459 51.9726 84.832 52.2601C84.7181 52.5477 84.6628 52.855 84.6692 53.1642V56.7102H81.1222C80.813 56.7038 80.5057 56.7591 80.2181 56.873C79.9306 56.9869 79.6687 57.157 79.4478 57.3734C79.2269 57.5898 79.0514 57.8481 78.9315 58.1332C78.8117 58.4183 78.75 58.7244 78.75 59.0337C78.75 59.3429 78.8117 59.6491 78.9315 59.9342C79.0514 60.2193 79.2269 60.4776 79.4478 60.694C79.6687 60.9104 79.9306 61.0805 80.2181 61.1944C80.5057 61.3083 80.813 61.3636 81.1222 61.3572H84.6692V64.9042C84.6628 65.2134 84.7181 65.5207 84.832 65.8082C84.9459 66.0958 85.116 66.3577 85.3324 66.5786C85.5488 66.7995 85.8071 66.975 86.0922 67.0948C86.3773 67.2147 86.6835 67.2764 86.9927 67.2764C87.302 67.2764 87.6081 67.2147 87.8932 67.0948C88.1783 66.975 88.4366 66.7995 88.653 66.5786C88.8694 66.3577 89.0395 66.0958 89.1534 65.8082C89.2673 65.5207 89.3226 65.2134 89.3162 64.9042V61.3642H92.8622C93.1714 61.3706 93.4788 61.3153 93.7663 61.2014C94.0538 61.0875 94.3157 60.9174 94.5366 60.701C94.7575 60.4846 94.933 60.2263 95.0529 59.9412C95.1727 59.6561 95.2344 59.3499 95.2344 59.0407C95.2344 58.7314 95.1727 58.4253 95.0529 58.1402C94.933 57.8551 94.7575 57.5968 94.5366 57.3804C94.3157 57.164 94.0538 56.9939 93.7663 56.88C93.4788 56.7661 93.1714 56.7108 92.8622 56.7172V56.7132Z" fill="#A3ACC0"/>
<path d="M459.835 305.735C461.346 305.735 462.572 304.509 462.572 302.998C462.572 301.486 461.346 300.261 459.835 300.261C458.323 300.261 457.098 301.486 457.098 302.998C457.098 304.509 458.323 305.735 459.835 305.735Z" fill="#A3ACC0"/>
<path d="M136.694 317.098C138.206 317.098 139.431 315.873 139.431 314.361C139.431 312.849 138.206 311.624 136.694 311.624C135.182 311.624 133.957 312.849 133.957 314.361C133.957 315.873 135.182 317.098 136.694 317.098Z" fill="#A3ACC0"/>
<defs>
<filter id="filter0_d_266_65" x="242.608" y="116.04" width="189.202" height="235.799" filterUnits="userSpaceOnUse" color-interpolation-filters="sRGB">
<feFlood flood-opacity="0" result="BackgroundImageFix"/>
<feColorMatrix in="SourceAlpha" type="matrix" values="0 0 0 0 0 0 0 0 0 0 0 0 0 0 0 0 0 0 127 0" result="hardAlpha"/>
<feOffset dy="30"/>
<feGaussianBlur stdDeviation="25"/>
<feColorMatrix type="matrix" values="0 0 0 0 0.666667 0 0 0 0 0.701961 0 0 0 0 0.85098 0 0 0 0.2 0"/>
<feBlend mode="normal" in2="BackgroundImageFix" result="effect1_dropShadow_266_65"/>
<feBlend mode="normal" in="SourceGraphic" in2="effect1_dropShadow_266_65" result="shape"/>
</filter>
</defs>
</svg>
