<svg width="56" height="55" viewBox="0 0 56 55" fill="none" xmlns="http://www.w3.org/2000/svg">
<path d="M11.7546 12.9976V12.4066H3.34961L6.14961 4.00662C6.30923 3.52708 6.61616 3.11018 7.02664 2.81533C7.43713 2.52049 7.93021 2.36276 8.43561 2.36462H13.3976C13.5516 2.01062 13.7166 1.65562 13.8976 1.30762L49.5626 1.77462L54.2796 12.9976H11.7546Z" fill="#E9EBEF"/>
<path d="M52.0702 3.13394C51.7671 2.22114 51.1838 1.4272 50.4033 0.865064C49.6229 0.302933 48.685 0.00124897 47.7232 0.00293673H8.4332C7.43327 0.00199903 6.45842 0.315919 5.64693 0.900171C4.83544 1.48442 4.2285 2.30935 3.9122 3.25794L0.533203 13.0029V23.4029C0.533203 24.6829 1.04166 25.9104 1.94671 26.8154C2.85176 27.7205 4.07927 28.2289 5.3592 28.2289H50.6412C51.9211 28.2289 53.1486 27.7205 54.0537 26.8154C54.9588 25.9104 55.4672 24.6829 55.4672 23.4029V13.0029L52.0702 3.13394ZM6.1502 4.00294C6.31052 3.52483 6.61736 3.10936 7.02717 2.81551C7.43698 2.52166 7.92893 2.36436 8.4332 2.36594H47.5632C48.068 2.36373 48.5606 2.52073 48.971 2.81463C49.3814 3.10852 49.6887 3.52434 49.8492 4.00294L52.6492 12.4029H3.3512L6.1502 4.00294ZM53.1042 23.4029C53.1042 24.0562 52.8447 24.6826 52.3828 25.1445C51.9209 25.6064 51.2944 25.8659 50.6412 25.8659H5.3592C4.70598 25.8659 4.0795 25.6064 3.6176 25.1445C3.1557 24.6826 2.8962 24.0562 2.8962 23.4029V14.7729H53.1042V23.4029Z" fill="#2533CC"/>
<path d="M36.5647 4.75195H9.39373C9.06733 4.75195 8.80273 5.01633 8.80273 5.34245C8.80273 5.66858 9.06733 5.93295 9.39373 5.93295H36.5647C36.8911 5.93295 37.1557 5.66858 37.1557 5.34245C37.1557 5.01633 36.8911 4.75195 36.5647 4.75195Z" fill="#2533CC"/>
<path d="M46.6066 4.75195H40.1096C39.7832 4.75195 39.5186 5.01633 39.5186 5.34245C39.5186 5.66858 39.7832 5.93295 40.1096 5.93295H46.6066C46.933 5.93295 47.1976 5.66858 47.1976 5.34245C47.1976 5.01633 46.933 4.75195 46.6066 4.75195Z" fill="#2533CC"/>
<path d="M34.7936 20.2809C34.7936 20.4377 34.7313 20.588 34.6205 20.6988C34.5097 20.8097 34.3593 20.8719 34.2026 20.8719H19.4366C19.357 20.8752 19.2776 20.8624 19.2031 20.8342C19.1286 20.806 19.0605 20.763 19.0031 20.7078C18.9456 20.6527 18.8999 20.5865 18.8686 20.5132C18.8374 20.4399 18.8213 20.3611 18.8213 20.2814C18.8213 20.2018 18.8374 20.1229 18.8686 20.0497C18.8999 19.9764 18.9456 19.9102 19.0031 19.855C19.0605 19.7999 19.1286 19.7569 19.2031 19.7287C19.2776 19.7005 19.357 19.6877 19.4366 19.6909H34.2036C34.36 19.6912 34.5099 19.7534 34.6205 19.864C34.7311 19.9746 34.7933 20.1245 34.7936 20.2809Z" fill="#2533CC"/>
<path d="M8.21225 18.2142V22.3492C8.20598 22.5016 8.14102 22.6456 8.03097 22.7513C7.92091 22.8569 7.77428 22.9159 7.62175 22.9159C7.46922 22.9159 7.32259 22.8569 7.21253 22.7513C7.10248 22.6456 7.03752 22.5016 7.03125 22.3492V18.2142C7.03752 18.0617 7.10248 17.9177 7.21253 17.8121C7.32259 17.7064 7.46922 17.6475 7.62175 17.6475C7.77428 17.6475 7.92091 17.7064 8.03097 17.8121C8.14102 17.9177 8.20598 18.0617 8.21225 18.2142Z" fill="#2533CC"/>
<path d="M11.7562 18.2142V22.3492C11.7499 22.5016 11.685 22.6456 11.5749 22.7513C11.4649 22.8569 11.3182 22.9159 11.1657 22.9159C11.0132 22.9159 10.8665 22.8569 10.7565 22.7513C10.6464 22.6456 10.5815 22.5016 10.5752 22.3492V18.2142C10.5815 18.0617 10.6464 17.9177 10.7565 17.8121C10.8665 17.7064 11.0132 17.6475 11.1657 17.6475C11.3182 17.6475 11.4649 17.7064 11.5749 17.8121C11.685 17.9177 11.7499 18.0617 11.7562 18.2142Z" fill="#2533CC"/>
<path d="M15.3006 18.212V22.347C15.2944 22.4994 15.2294 22.6435 15.1194 22.7491C15.0093 22.8547 14.8627 22.9137 14.7101 22.9137C14.5576 22.9137 14.411 22.8547 14.3009 22.7491C14.1909 22.6435 14.1259 22.4994 14.1196 22.347V18.212C14.1164 18.1324 14.1292 18.053 14.1574 17.9785C14.1856 17.904 14.2286 17.8359 14.2837 17.7785C14.3389 17.721 14.4051 17.6753 14.4784 17.644C14.5516 17.6128 14.6305 17.5967 14.7101 17.5967C14.7898 17.5967 14.8686 17.6128 14.9419 17.644C15.0152 17.6753 15.0814 17.721 15.1365 17.7785C15.1917 17.8359 15.2347 17.904 15.2629 17.9785C15.2911 18.053 15.3039 18.1324 15.3006 18.212Z" fill="#2533CC"/>
<path d="M39.2231 21.7577C40.0388 21.7577 40.7001 21.0964 40.7001 20.2807C40.7001 19.465 40.0388 18.8037 39.2231 18.8037C38.4074 18.8037 37.7461 19.465 37.7461 20.2807C37.7461 21.0964 38.4074 21.7577 39.2231 21.7577Z" fill="#2533CC"/>
<path d="M43.3579 21.7577C44.1736 21.7577 44.8349 21.0964 44.8349 20.2807C44.8349 19.465 44.1736 18.8037 43.3579 18.8037C42.5421 18.8037 41.8809 19.465 41.8809 20.2807C41.8809 21.0964 42.5421 21.7577 43.3579 21.7577Z" fill="#2533CC"/>
<path d="M47.4926 21.7577C48.3083 21.7577 48.9696 21.0964 48.9696 20.2807C48.9696 19.465 48.3083 18.8037 47.4926 18.8037C46.6769 18.8037 46.0156 19.465 46.0156 20.2807C46.0156 21.0964 46.6769 21.7577 47.4926 21.7577Z" fill="#2533CC"/>
<path d="M12.3472 41.3508C12.8172 41.3508 13.2679 41.5375 13.6002 41.8698C13.9325 42.2021 14.1192 42.6528 14.1192 43.1228V50.8018C14.1192 51.2718 13.9325 51.7225 13.6002 52.0548C13.2679 52.3871 12.8172 52.5738 12.3472 52.5738H4.6682C4.19824 52.5738 3.74752 52.3871 3.41521 52.0548C3.0829 51.7225 2.8962 51.2718 2.8962 50.8018V43.1228C2.8962 42.6528 3.0829 42.2021 3.41521 41.8698C3.74752 41.5375 4.19824 41.3508 4.6682 41.3508H12.3472ZM12.3472 38.9878H4.6682C3.57153 38.9878 2.51978 39.4234 1.74432 40.1989C0.968854 40.9744 0.533203 42.0261 0.533203 43.1228L0.533203 50.8018C0.533203 51.8985 0.968854 52.9502 1.74432 53.7257C2.51978 54.5011 3.57153 54.9368 4.6682 54.9368H12.3472C13.4439 54.9368 14.4956 54.5011 15.2711 53.7257C16.0466 52.9502 16.4822 51.8985 16.4822 50.8018V43.1228C16.4822 42.0261 16.0466 40.9744 15.2711 40.1989C14.4956 39.4234 13.4439 38.9878 12.3472 38.9878Z" fill="#2533CC"/>
<path d="M31.8394 41.3508C32.3094 41.3508 32.7601 41.5375 33.0924 41.8698C33.4247 42.2021 33.6114 42.6528 33.6114 43.1228V50.8018C33.6114 51.2718 33.4247 51.7225 33.0924 52.0548C32.7601 52.3871 32.3094 52.5738 31.8394 52.5738H24.1604C23.6904 52.5738 23.2397 52.3871 22.9074 52.0548C22.5751 51.7225 22.3884 51.2718 22.3884 50.8018V43.1228C22.3884 42.6528 22.5751 42.2021 22.9074 41.8698C23.2397 41.5375 23.6904 41.3508 24.1604 41.3508H31.8394ZM31.8394 38.9878H24.1604C23.0637 38.9878 22.012 39.4234 21.2365 40.1989C20.461 40.9744 20.0254 42.0261 20.0254 43.1228V50.8018C20.0254 51.8985 20.461 52.9502 21.2365 53.7257C22.012 54.5011 23.0637 54.9368 24.1604 54.9368H31.8394C32.9361 54.9368 33.9878 54.5011 34.7633 53.7257C35.5387 52.9502 35.9744 51.8985 35.9744 50.8018V43.1228C35.9744 42.0261 35.5387 40.9744 34.7633 40.1989C33.9878 39.4234 32.9361 38.9878 31.8394 38.9878Z" fill="#2533CC"/>
<path d="M51.3326 41.3508C51.8025 41.3508 52.2532 41.5375 52.5855 41.8698C52.9179 42.2021 53.1046 42.6528 53.1046 43.1228V50.8018C53.1046 51.2718 52.9179 51.7225 52.5855 52.0548C52.2532 52.3871 51.8025 52.5738 51.3326 52.5738H43.6536C43.1836 52.5738 42.7329 52.3871 42.4006 52.0548C42.0682 51.7225 41.8816 51.2718 41.8816 50.8018V43.1228C41.8816 42.6528 42.0682 42.2021 42.4006 41.8698C42.7329 41.5375 43.1836 41.3508 43.6536 41.3508H51.3326ZM51.3326 38.9878H43.6536C42.5569 38.9878 41.5051 39.4234 40.7297 40.1989C39.9542 40.9744 39.5186 42.0261 39.5186 43.1228V50.8018C39.5186 51.8985 39.9542 52.9502 40.7297 53.7257C41.5051 54.5011 42.5569 54.9368 43.6536 54.9368H51.3326C52.4292 54.9368 53.481 54.5011 54.2564 53.7257C55.0319 52.9502 55.4676 51.8985 55.4676 50.8018V43.1228C55.4676 42.5798 55.3606 42.0421 55.1528 41.5404C54.945 41.0387 54.6404 40.5829 54.2564 40.1989C53.8725 39.8149 53.4166 39.5104 52.9149 39.3026C52.4133 39.0947 51.8756 38.9878 51.3326 38.9878Z" fill="#2533CC"/>
<path d="M28.8864 27.1978H26.5234V40.1928H28.8864V27.1978Z" fill="#2533CC"/>
<path d="M9.39425 40.1702H7.03125V36.0352C7.03125 35.0953 7.40463 34.1939 8.06926 33.5292C8.73389 32.8646 9.63532 32.4912 10.5752 32.4912H27.7052V34.8542H10.5752C10.262 34.8542 9.96164 34.9786 9.74016 35.2001C9.51868 35.4216 9.39425 35.722 9.39425 36.0352V40.1702Z" fill="#2533CC"/>
<path d="M48.3791 40.1702H46.0161V36.0352C46.0161 35.722 45.8917 35.4216 45.6702 35.2001C45.4487 34.9786 45.1483 34.8542 44.8351 34.8542H27.7051V32.4912H44.8351C45.775 32.4912 46.6764 32.8646 47.3411 33.5292C48.0057 34.1939 48.3791 35.0953 48.3791 36.0352V40.1702Z" fill="#2533CC"/>
<path d="M30.0668 44.917H25.9328C25.6064 44.917 25.3418 45.1814 25.3418 45.5075C25.3418 45.8336 25.6064 46.098 25.9328 46.098H30.0668C30.3932 46.098 30.6578 45.8336 30.6578 45.5075C30.6578 45.1814 30.3932 44.917 30.0668 44.917Z" fill="#2533CC"/>
<path d="M30.0668 47.8701H25.9328C25.6064 47.8701 25.3418 48.1345 25.3418 48.4606C25.3418 48.7867 25.6064 49.0511 25.9328 49.0511H30.0668C30.3932 49.0511 30.6578 48.7867 30.6578 48.4606C30.6578 48.1345 30.3932 47.8701 30.0668 47.8701Z" fill="#2533CC"/>
<path d="M10.5746 44.917H6.44061C6.11421 44.917 5.84961 45.1814 5.84961 45.5075C5.84961 45.8336 6.11421 46.098 6.44061 46.098H10.5746C10.901 46.098 11.1656 45.8336 11.1656 45.5075C11.1656 45.1814 10.901 44.917 10.5746 44.917Z" fill="#2533CC"/>
<path d="M10.5746 47.8701H6.44061C6.11421 47.8701 5.84961 48.1345 5.84961 48.4606C5.84961 48.7867 6.11421 49.0511 6.44061 49.0511H10.5746C10.901 49.0511 11.1656 48.7867 11.1656 48.4606C11.1656 48.1345 10.901 47.8701 10.5746 47.8701Z" fill="#2533CC"/>
<path d="M49.559 44.917H45.425C45.0986 44.917 44.834 45.1814 44.834 45.5075C44.834 45.8336 45.0986 46.098 45.425 46.098H49.559C49.8854 46.098 50.15 45.8336 50.15 45.5075C50.15 45.1814 49.8854 44.917 49.559 44.917Z" fill="#2533CC"/>
<path d="M49.559 47.8701H45.425C45.0986 47.8701 44.834 48.1345 44.834 48.4606C44.834 48.7867 45.0986 49.0511 45.425 49.0511H49.559C49.8854 49.0511 50.15 48.7867 50.15 48.4606C50.15 48.1345 49.8854 47.8701 49.559 47.8701Z" fill="#2533CC"/>
</svg>
