<svg width="60" height="61" viewBox="0 0 60 61" fill="none" xmlns="http://www.w3.org/2000/svg">
<path d="M53.9893 12.2009C54.0218 11.9922 53.9798 11.7787 53.8707 11.5978C53.7616 11.4169 53.5924 11.2801 53.3927 11.2113C45.6097 7.79609 37.8463 4.34562 30.1025 0.859922C29.9277 0.771602 29.7347 0.725586 29.539 0.725586C29.3432 0.725586 29.1502 0.771602 28.9755 0.859922C21.1804 4.32577 13.3894 7.782 5.60263 11.2286C5.41348 11.2789 5.2489 11.3959 5.13925 11.558C5.02959 11.7201 4.98226 11.9164 5.00598 12.1106C5.05979 17.417 5.00022 22.7301 5.05979 28.0365C5.09421 35.3478 7.47718 42.4547 11.8573 48.3089C15.9012 53.9734 21.7065 58.1399 28.3673 60.1581C29.1068 60.3911 29.9 60.3911 30.6395 60.1581C36.9684 58.2641 42.5312 54.4068 46.5241 49.1438C51.3791 43.0461 54.0082 35.4744 53.9768 27.68C53.9768 25.3847 53.9768 23.0952 53.9768 20.7989C53.9531 17.9365 53.9573 15.0705 53.9893 12.2009ZM49.7792 22.4688V28.1691C49.809 34.6285 47.6341 40.9048 43.6139 45.9607C40.3056 50.3303 35.6925 53.5338 30.4426 55.1073C29.8294 55.3008 29.1716 55.3008 28.5585 55.1073C23.0363 53.4316 18.2244 49.9745 14.8741 45.2757C11.2404 40.4224 9.26289 34.5297 9.2334 28.4669C9.18536 24.0665 9.2334 19.6662 9.2334 15.2658C9.21409 15.1073 9.25181 14.9471 9.33983 14.8138C9.42784 14.6806 9.56041 14.583 9.71379 14.5385C16.1497 11.6882 22.5933 8.82028 29.0446 5.93475C29.1897 5.86145 29.35 5.82327 29.5125 5.82327C29.6751 5.82327 29.8354 5.86145 29.9804 5.93475C36.4221 8.82028 42.8593 11.6802 49.2921 14.5145C49.4571 14.5724 49.5965 14.6866 49.6859 14.8369C49.7753 14.9873 49.809 15.1642 49.7811 15.3369C49.7792 17.7158 49.7792 20.0889 49.7792 22.4688Z" fill="#2533CC"/>
<path d="M46.2024 17.0117L43.1721 15.6704L15.0117 39.5208C15.6276 40.7204 16.3416 41.867 17.1466 42.9488C17.672 43.6565 18.2332 44.337 18.8279 44.9876L46.6309 21.4485V17.7015C46.653 17.5544 46.6221 17.4041 46.5436 17.2777C46.4651 17.1513 46.3441 17.057 46.2024 17.0117Z" fill="#2533CC"/>
<path d="M28.7017 51.2677C29.2197 51.4315 29.7757 51.4315 30.2937 51.2677C34.7314 49.9459 38.6327 47.2449 41.432 43.5565C44.8272 39.2908 46.6655 33.9944 46.6433 28.5425C46.6433 27.8209 46.6433 27.0936 46.6433 26.3721L21.6006 47.5918C23.7151 49.2539 26.1243 50.502 28.7017 51.2706V51.2677Z" fill="#2533CC"/>
<path d="M29.9114 9.77298C29.7894 9.71164 29.6546 9.67969 29.518 9.67969C29.3814 9.67969 29.2466 9.71164 29.1246 9.77298C23.6802 12.198 18.2422 14.6169 12.8106 17.0297C12.6871 17.0713 12.5807 17.1521 12.5075 17.2598C12.4342 17.3676 12.3983 17.4963 12.4051 17.6264V28.7714C12.4124 29.9897 12.512 31.2057 12.703 32.4089C12.8894 33.5921 13.1623 34.76 13.5196 35.9033L39.3684 13.9802L29.9114 9.77298Z" fill="#2533CC"/>
</svg>
