<svg width="56" height="56" viewBox="0 0 56 56" fill="none" xmlns="http://www.w3.org/2000/svg">
<path d="M52.6506 12.9737H3.35156L6.15156 4.57366C6.31118 4.09412 6.61811 3.67722 7.02859 3.38237C7.43908 3.08753 7.93216 2.9298 8.43756 2.93166H47.5646C48.07 2.9298 48.563 3.08753 48.9735 3.38237C49.384 3.67722 49.6909 4.09412 49.8506 4.57366L52.6506 12.9737Z" fill="#E9EBEF"/>
<path d="M36.5647 5.31787H9.39373C9.06733 5.31787 8.80273 5.58225 8.80273 5.90837C8.80273 6.2345 9.06733 6.49887 9.39373 6.49887H36.5647C36.8911 6.49887 37.1557 6.2345 37.1557 5.90837C37.1557 5.58225 36.8911 5.31787 36.5647 5.31787Z" fill="#2533CC"/>
<path d="M46.6075 5.31787H40.1105C39.7841 5.31787 39.5195 5.58225 39.5195 5.90837C39.5195 6.2345 39.7841 6.49887 40.1105 6.49887H46.6075C46.9339 6.49887 47.1985 6.2345 47.1985 5.90837C47.1985 5.58225 46.9339 5.31787 46.6075 5.31787Z" fill="#2533CC"/>
<path d="M50.6412 35.8784C50.9672 35.8784 51.2899 35.9431 51.5907 36.0687C51.8915 36.1944 52.1644 36.3785 52.3935 36.6104C52.6226 36.8423 52.8034 37.1173 52.9254 37.4196C53.0474 37.7219 53.1082 38.0454 53.1042 38.3714V50.5454C53.1042 51.1986 52.8447 51.8251 52.3828 52.287C51.9209 52.7489 51.2944 53.0084 50.6412 53.0084H5.3592C4.70598 53.0084 4.0795 52.7489 3.6176 52.287C3.1557 51.8251 2.8962 51.1986 2.8962 50.5454V38.3714C2.8962 37.7182 3.1557 37.0917 3.6176 36.6298C4.0795 36.1679 4.70598 35.9084 5.3592 35.9084H50.6412V35.8784ZM50.6412 33.5454H5.3592C4.07927 33.5454 2.85176 34.0539 1.94671 34.9589C1.04166 35.864 0.533203 37.0915 0.533203 38.3714L0.533203 50.5454C0.533203 51.8253 1.04166 53.0529 1.94671 53.9579C2.85176 54.863 4.07927 55.3714 5.3592 55.3714H50.6412C51.9211 55.3714 53.1486 54.863 54.0537 53.9579C54.9588 53.0529 55.4672 51.8253 55.4672 50.5454V38.3714C55.4672 37.0915 54.9588 35.864 54.0537 34.9589C53.1486 34.0539 51.9211 33.5454 50.6412 33.5454Z" fill="#2533CC"/>
<path d="M34.2027 43.7139H19.4357C19.1093 43.7139 18.8447 43.9782 18.8447 44.3044C18.8447 44.6305 19.1093 44.8949 19.4357 44.8949H34.2027C34.5291 44.8949 34.7937 44.6305 34.7937 44.3044C34.7937 43.9782 34.5291 43.7139 34.2027 43.7139Z" fill="#2533CC"/>
<path d="M7.03125 42.5318V46.6658C7.03125 46.9922 7.29563 47.2568 7.62175 47.2568C7.94787 47.2568 8.21225 46.9922 8.21225 46.6658V42.5318C8.21225 42.2054 7.94787 41.9408 7.62175 41.9408C7.29563 41.9408 7.03125 42.2054 7.03125 42.5318Z" fill="#2533CC"/>
<path d="M10.5752 42.5318V46.6658C10.5752 46.9922 10.8396 47.2568 11.1657 47.2568C11.4918 47.2568 11.7562 46.9922 11.7562 46.6658V42.5318C11.7562 42.2054 11.4918 41.9408 11.1657 41.9408C10.8396 41.9408 10.5752 42.2054 10.5752 42.5318Z" fill="#2533CC"/>
<path d="M14.1191 42.5318V46.6658C14.1191 46.9922 14.3835 47.2568 14.7096 47.2568C15.0358 47.2568 15.3001 46.9922 15.3001 46.6658V42.5318C15.3001 42.2054 15.0358 41.9408 14.7096 41.9408C14.3835 41.9408 14.1191 42.2054 14.1191 42.5318Z" fill="#2533CC"/>
<path d="M39.2241 46.077C40.0398 46.077 40.7011 45.4158 40.7011 44.6C40.7011 43.7843 40.0398 43.123 39.2241 43.123C38.4083 43.123 37.7471 43.7843 37.7471 44.6C37.7471 45.4158 38.4083 46.077 39.2241 46.077Z" fill="#2533CC"/>
<path d="M43.3588 46.077C44.1746 46.077 44.8358 45.4158 44.8358 44.6C44.8358 43.7843 44.1746 43.123 43.3588 43.123C42.5431 43.123 41.8818 43.7843 41.8818 44.6C41.8818 45.4158 42.5431 46.077 43.3588 46.077Z" fill="#2533CC"/>
<path d="M47.4936 46.077C48.3093 46.077 48.9706 45.4158 48.9706 44.6C48.9706 43.7843 48.3093 43.123 47.4936 43.123C46.6779 43.123 46.0166 43.7843 46.0166 44.6C46.0166 45.4158 46.6779 46.077 47.4936 46.077Z" fill="#2533CC"/>
<path d="M52.0712 3.69986C51.768 2.7869 51.1846 1.99284 50.4039 1.43069C49.6233 0.868544 48.6852 0.566958 47.7232 0.568857H8.4332C7.43327 0.567919 6.45842 0.881839 5.64693 1.46609C4.83544 2.05034 4.2285 2.87527 3.9122 3.82386L0.533203 13.5689V30.0269C0.540075 31.3023 1.05156 32.5231 1.95587 33.4226C2.86017 34.322 4.08376 34.8269 5.3592 34.8269H50.6412C51.9166 34.8269 53.1402 34.322 54.0445 33.4226C54.9488 32.5231 55.4603 31.3023 55.4672 30.0269V13.5689L52.0712 3.69986ZM6.1502 4.56886C6.31052 4.09075 6.61736 3.67528 7.02717 3.38143C7.43698 3.08758 7.92893 2.93028 8.4332 2.93186H47.5642C48.069 2.92965 48.5616 3.08665 48.972 3.38055C49.3824 3.67444 49.6897 4.09026 49.8502 4.56886L52.6502 12.9689H3.3512L6.1502 4.56886ZM53.1052 30.0269C53.0991 30.6761 52.837 31.2967 52.3757 31.7536C51.9145 32.2106 51.2915 32.4669 50.6422 32.4669H5.3592C4.70994 32.4669 4.08693 32.2106 3.62568 31.7536C3.16443 31.2967 2.90227 30.6761 2.8962 30.0269V15.3359H53.1052V30.0269Z" fill="#2533CC"/>
<path d="M34.2037 23.0376H19.4367C19.1103 23.0376 18.8457 23.302 18.8457 23.6281C18.8457 23.9542 19.1103 24.2186 19.4367 24.2186H34.2037C34.5301 24.2186 34.7947 23.9542 34.7947 23.6281C34.7947 23.302 34.5301 23.0376 34.2037 23.0376Z" fill="#2533CC"/>
<path d="M7.03125 21.8595V25.9935C7.03125 26.3199 7.29563 26.5845 7.62175 26.5845C7.94787 26.5845 8.21225 26.3199 8.21225 25.9935V21.8595C8.21225 21.5331 7.94787 21.2685 7.62175 21.2685C7.29563 21.2685 7.03125 21.5331 7.03125 21.8595Z" fill="#2533CC"/>
<path d="M10.5752 21.8595V25.9935C10.5752 26.3199 10.8396 26.5845 11.1657 26.5845C11.4918 26.5845 11.7562 26.3199 11.7562 25.9935V21.8595C11.7562 21.5331 11.4918 21.2685 11.1657 21.2685C10.8396 21.2685 10.5752 21.5331 10.5752 21.8595Z" fill="#2533CC"/>
<path d="M14.1191 21.8595V25.9935C14.1191 26.3199 14.3835 26.5845 14.7096 26.5845C15.0358 26.5845 15.3001 26.3199 15.3001 25.9935V21.8595C15.3001 21.5331 15.0358 21.2685 14.7096 21.2685C14.3835 21.2685 14.1191 21.5331 14.1191 21.8595Z" fill="#2533CC"/>
<path d="M39.2241 25.4018C40.0398 25.4018 40.7011 24.7405 40.7011 23.9248C40.7011 23.109 40.0398 22.4478 39.2241 22.4478C38.4083 22.4478 37.7471 23.109 37.7471 23.9248C37.7471 24.7405 38.4083 25.4018 39.2241 25.4018Z" fill="#2533CC"/>
<path d="M43.3588 25.4018C44.1746 25.4018 44.8358 24.7405 44.8358 23.9248C44.8358 23.109 44.1746 22.4478 43.3588 22.4478C42.5431 22.4478 41.8818 23.109 41.8818 23.9248C41.8818 24.7405 42.5431 25.4018 43.3588 25.4018Z" fill="#2533CC"/>
<path d="M47.4936 25.4018C48.3093 25.4018 48.9706 24.7405 48.9706 23.9248C48.9706 23.109 48.3093 22.4478 47.4936 22.4478C46.6779 22.4478 46.0166 23.109 46.0166 23.9248C46.0166 24.7405 46.6779 25.4018 47.4936 25.4018Z" fill="#2533CC"/>
</svg>
